<mxfile host="app.diagrams.net" modified="2023-05-14T14:13:42.648Z" agent="Mozilla/5.0 (X11; Linux x86_64; rv:109.0) Gecko/20100101 Firefox/113.0" etag="gmLup-cpsYhRumuAsr1n" version="21.3.0" type="device">
  <diagram name="Page-1" id="929967ad-93f9-6ef4-fab6-5d389245f69c">
    <mxGraphModel dx="1616" dy="2174" grid="0" gridSize="10" guides="1" tooltips="1" connect="1" arrows="1" fold="1" page="1" pageScale="1.5" pageWidth="1169" pageHeight="826" background="none" math="0" shadow="0">
      <root>
        <mxCell id="0" style=";html=1;" />
        <mxCell id="1" style=";html=1;" parent="0" />
        <mxCell id="FeAwTVIBc3wcNW8rMhO_-11" style="edgeStyle=orthogonalEdgeStyle;rounded=0;orthogonalLoop=1;jettySize=auto;html=1;endArrow=ERmany;endFill=0;startSize=6;endSize=16;fontSize=12;" parent="1" source="rnoh4Z8EWgfpR7q-5i3M-1" target="cGDgYfXUe002vliOC38j-30" edge="1">
          <mxGeometry relative="1" as="geometry">
            <Array as="points">
              <mxPoint x="960" y="144" />
              <mxPoint x="960" y="144" />
            </Array>
            <mxPoint x="905" y="129" as="targetPoint" />
          </mxGeometry>
        </mxCell>
        <mxCell id="rnoh4Z8EWgfpR7q-5i3M-1" value="users" style="swimlane;fontStyle=0;childLayout=stackLayout;horizontal=1;startSize=26;fillColor=none;horizontalStack=0;resizeParent=1;resizeParentMax=0;resizeLast=0;collapsible=1;marginBottom=0;fontSize=12;" parent="1" vertex="1">
          <mxGeometry x="692" y="40" width="249" height="260" as="geometry" />
        </mxCell>
        <mxCell id="rnoh4Z8EWgfpR7q-5i3M-2" value="id: BIGINT PK" style="text;strokeColor=none;fillColor=none;align=left;verticalAlign=top;spacingLeft=4;spacingRight=4;overflow=hidden;rotatable=0;points=[[0,0.5],[1,0.5]];portConstraint=eastwest;fontSize=12;" parent="rnoh4Z8EWgfpR7q-5i3M-1" vertex="1">
          <mxGeometry y="26" width="249" height="26" as="geometry" />
        </mxCell>
        <mxCell id="rnoh4Z8EWgfpR7q-5i3M-7" value="name: VARCHAR(255)" style="text;strokeColor=none;fillColor=none;align=left;verticalAlign=top;spacingLeft=4;spacingRight=4;overflow=hidden;rotatable=0;points=[[0,0.5],[1,0.5]];portConstraint=eastwest;fontSize=12;" parent="rnoh4Z8EWgfpR7q-5i3M-1" vertex="1">
          <mxGeometry y="52" width="249" height="26" as="geometry" />
        </mxCell>
        <mxCell id="cGDgYfXUe002vliOC38j-13" value="email: VARCHAR(255) UNIQUE INDEX" style="text;strokeColor=none;fillColor=none;align=left;verticalAlign=top;spacingLeft=4;spacingRight=4;overflow=hidden;rotatable=0;points=[[0,0.5],[1,0.5]];portConstraint=eastwest;fontSize=12;" parent="rnoh4Z8EWgfpR7q-5i3M-1" vertex="1">
          <mxGeometry y="78" width="249" height="26" as="geometry" />
        </mxCell>
        <mxCell id="7T5_bjkfD0b6_hwlpqSb-1" value="email_verified_at: TIMESTAM&#xa;&#xa; " style="text;strokeColor=none;fillColor=none;align=left;verticalAlign=top;spacingLeft=4;spacingRight=4;overflow=hidden;rotatable=0;points=[[0,0.5],[1,0.5]];portConstraint=eastwest;fontSize=12;" parent="rnoh4Z8EWgfpR7q-5i3M-1" vertex="1">
          <mxGeometry y="104" width="249" height="26" as="geometry" />
        </mxCell>
        <mxCell id="rnoh4Z8EWgfpR7q-5i3M-8" value="password: VARCHAR(255)" style="text;strokeColor=none;fillColor=none;align=left;verticalAlign=top;spacingLeft=4;spacingRight=4;overflow=hidden;rotatable=0;points=[[0,0.5],[1,0.5]];portConstraint=eastwest;fontSize=12;" parent="rnoh4Z8EWgfpR7q-5i3M-1" vertex="1">
          <mxGeometry y="130" width="249" height="26" as="geometry" />
        </mxCell>
        <mxCell id="rnoh4Z8EWgfpR7q-5i3M-9" value="phone: VARCHAR(25) " style="text;strokeColor=none;fillColor=none;align=left;verticalAlign=top;spacingLeft=4;spacingRight=4;overflow=hidden;rotatable=0;points=[[0,0.5],[1,0.5]];portConstraint=eastwest;fontSize=12;" parent="rnoh4Z8EWgfpR7q-5i3M-1" vertex="1">
          <mxGeometry y="156" width="249" height="26" as="geometry" />
        </mxCell>
        <mxCell id="YJC0n_gU5u2Sfq8NGY93-40" value="rights:  UNSIGNED TINYINT default(1)" style="text;strokeColor=none;fillColor=none;align=left;verticalAlign=top;spacingLeft=4;spacingRight=4;overflow=hidden;rotatable=0;points=[[0,0.5],[1,0.5]];portConstraint=eastwest;fontSize=12;" parent="rnoh4Z8EWgfpR7q-5i3M-1" vertex="1">
          <mxGeometry y="182" width="249" height="26" as="geometry" />
        </mxCell>
        <mxCell id="7T5_bjkfD0b6_hwlpqSb-3" value="rememberToken:  VARCHAR(100)" style="text;strokeColor=none;fillColor=none;align=left;verticalAlign=top;spacingLeft=4;spacingRight=4;overflow=hidden;rotatable=0;points=[[0,0.5],[1,0.5]];portConstraint=eastwest;fontSize=12;" parent="rnoh4Z8EWgfpR7q-5i3M-1" vertex="1">
          <mxGeometry y="208" width="249" height="26" as="geometry" />
        </mxCell>
        <mxCell id="7T5_bjkfD0b6_hwlpqSb-11" value="timestamps() (created and updated fkields)" style="text;strokeColor=none;fillColor=none;align=left;verticalAlign=top;spacingLeft=4;spacingRight=4;overflow=hidden;rotatable=0;points=[[0,0.5],[1,0.5]];portConstraint=eastwest;fontSize=12;" parent="rnoh4Z8EWgfpR7q-5i3M-1" vertex="1">
          <mxGeometry y="234" width="249" height="26" as="geometry" />
        </mxCell>
        <mxCell id="ZE5WBzzTI7uvC2e-RDDq-33" style="edgeStyle=orthogonalEdgeStyle;rounded=0;orthogonalLoop=1;jettySize=auto;html=1;endArrow=ERmany;endFill=0;startSize=6;endSize=16;fontSize=12;" parent="1" source="CMXJ-791xtNu_VCUBqrS-17" target="ZE5WBzzTI7uvC2e-RDDq-29" edge="1">
          <mxGeometry relative="1" as="geometry">
            <Array as="points">
              <mxPoint x="700" y="916" />
            </Array>
          </mxGeometry>
        </mxCell>
        <mxCell id="gBOeq5-oKmPeRh7g_FEv-6" style="edgeStyle=orthogonalEdgeStyle;rounded=0;orthogonalLoop=1;jettySize=auto;html=1;endArrow=none;endFill=0;fontSize=12;startArrow=none;startFill=0;startSize=16;" parent="1" source="7T5_bjkfD0b6_hwlpqSb-20" target="gBOeq5-oKmPeRh7g_FEv-1" edge="1">
          <mxGeometry relative="1" as="geometry">
            <Array as="points">
              <mxPoint x="1105" y="1482" />
              <mxPoint x="1105" y="1482" />
            </Array>
            <mxPoint x="1070" y="1361" as="sourcePoint" />
          </mxGeometry>
        </mxCell>
        <mxCell id="vvD_1Sxg6L-hfjobCTZO-13" style="edgeStyle=orthogonalEdgeStyle;rounded=0;orthogonalLoop=1;jettySize=auto;html=1;endArrow=ERmany;endFill=0;endSize=16;fontSize=12;" parent="1" source="CMXJ-791xtNu_VCUBqrS-17" target="vvD_1Sxg6L-hfjobCTZO-1" edge="1">
          <mxGeometry relative="1" as="geometry">
            <Array as="points">
              <mxPoint x="777" y="557" />
              <mxPoint x="777" y="557" />
            </Array>
          </mxGeometry>
        </mxCell>
        <mxCell id="YJC0n_gU5u2Sfq8NGY93-82" style="edgeStyle=orthogonalEdgeStyle;rounded=0;orthogonalLoop=1;jettySize=auto;html=1;fontSize=12;startArrow=none;startFill=0;endArrow=ERmany;endFill=0;startSize=16;endSize=16;" parent="1" source="CMXJ-791xtNu_VCUBqrS-17" target="YJC0n_gU5u2Sfq8NGY93-77" edge="1">
          <mxGeometry relative="1" as="geometry">
            <Array as="points">
              <mxPoint x="587" y="647" />
              <mxPoint x="587" y="647" />
            </Array>
          </mxGeometry>
        </mxCell>
        <mxCell id="CMXJ-791xtNu_VCUBqrS-28" style="edgeStyle=orthogonalEdgeStyle;rounded=0;orthogonalLoop=1;jettySize=auto;html=1;endArrow=ERmany;endFill=0;endSize=16;" parent="1" source="cGDgYfXUe002vliOC38j-1" target="CMXJ-791xtNu_VCUBqrS-17" edge="1">
          <mxGeometry relative="1" as="geometry">
            <Array as="points">
              <mxPoint x="1105" y="825" />
            </Array>
          </mxGeometry>
        </mxCell>
        <mxCell id="cGDgYfXUe002vliOC38j-1" value="items" style="swimlane;fontStyle=0;childLayout=stackLayout;horizontal=1;startSize=26;fillColor=none;horizontalStack=0;resizeParent=1;resizeParentMax=0;resizeLast=0;collapsible=1;marginBottom=0;fontSize=12;" parent="1" vertex="1">
          <mxGeometry x="940" y="995" width="330" height="286" as="geometry" />
        </mxCell>
        <mxCell id="LaoD8z0uFfNz1gGJoXrS-1" value="Товары для продажи" style="text;html=1;align=center;verticalAlign=middle;resizable=0;points=[];autosize=1;strokeColor=none;fillColor=none;" parent="cGDgYfXUe002vliOC38j-1" vertex="1">
          <mxGeometry y="26" width="330" height="26" as="geometry" />
        </mxCell>
        <mxCell id="cGDgYfXUe002vliOC38j-2" value="id:  BIGINT PK" style="text;strokeColor=none;fillColor=none;align=left;verticalAlign=top;spacingLeft=4;spacingRight=4;overflow=hidden;rotatable=0;points=[[0,0.5],[1,0.5]];portConstraint=eastwest;fontSize=12;" parent="cGDgYfXUe002vliOC38j-1" vertex="1">
          <mxGeometry y="52" width="330" height="26" as="geometry" />
        </mxCell>
        <mxCell id="cGDgYfXUe002vliOC38j-27" value="category_id:  BIGINT FK" style="text;strokeColor=none;fillColor=none;align=left;verticalAlign=top;spacingLeft=4;spacingRight=4;overflow=hidden;rotatable=0;points=[[0,0.5],[1,0.5]];portConstraint=eastwest;fontSize=12;" parent="cGDgYfXUe002vliOC38j-1" vertex="1">
          <mxGeometry y="78" width="330" height="26" as="geometry" />
        </mxCell>
        <mxCell id="cGDgYfXUe002vliOC38j-23" value="name: VARCHAR(255) INDEX UNIQUE&#xa;" style="text;strokeColor=none;fillColor=none;align=left;verticalAlign=top;spacingLeft=4;spacingRight=4;overflow=hidden;rotatable=0;points=[[0,0.5],[1,0.5]];portConstraint=eastwest;fontSize=12;" parent="cGDgYfXUe002vliOC38j-1" vertex="1">
          <mxGeometry y="104" width="330" height="26" as="geometry" />
        </mxCell>
        <mxCell id="7T5_bjkfD0b6_hwlpqSb-13" value="name_en: VARCHAR(255) INDEX UNIQUE" style="text;strokeColor=none;fillColor=none;align=left;verticalAlign=top;spacingLeft=4;spacingRight=4;overflow=hidden;rotatable=0;points=[[0,0.5],[1,0.5]];portConstraint=eastwest;fontSize=12;" parent="cGDgYfXUe002vliOC38j-1" vertex="1">
          <mxGeometry y="130" width="330" height="26" as="geometry" />
        </mxCell>
        <mxCell id="YDtYvaerDFjHqgt-Z0du-1" value="alias: VARCHAR(255) INDEX UNIQUE" style="text;strokeColor=none;fillColor=none;align=left;verticalAlign=top;spacingLeft=4;spacingRight=4;overflow=hidden;rotatable=0;points=[[0,0.5],[1,0.5]];portConstraint=eastwest;fontSize=12;" parent="cGDgYfXUe002vliOC38j-1" vertex="1">
          <mxGeometry y="156" width="330" height="26" as="geometry" />
        </mxCell>
        <mxCell id="cGDgYfXUe002vliOC38j-26" value="description: TEXT " style="text;strokeColor=none;fillColor=none;align=left;verticalAlign=top;spacingLeft=4;spacingRight=4;overflow=hidden;rotatable=0;points=[[0,0.5],[1,0.5]];portConstraint=eastwest;fontSize=12;" parent="cGDgYfXUe002vliOC38j-1" vertex="1">
          <mxGeometry y="182" width="330" height="26" as="geometry" />
        </mxCell>
        <mxCell id="7T5_bjkfD0b6_hwlpqSb-14" value="description_en: TEXT " style="text;strokeColor=none;fillColor=none;align=left;verticalAlign=top;spacingLeft=4;spacingRight=4;overflow=hidden;rotatable=0;points=[[0,0.5],[1,0.5]];portConstraint=eastwest;fontSize=12;" parent="cGDgYfXUe002vliOC38j-1" vertex="1">
          <mxGeometry y="208" width="330" height="26" as="geometry" />
        </mxCell>
        <mxCell id="YJC0n_gU5u2Sfq8NGY93-30" value="softDeletes() (deleted_at системное поле)" style="text;strokeColor=none;fillColor=none;align=left;verticalAlign=top;spacingLeft=4;spacingRight=4;overflow=hidden;rotatable=0;points=[[0,0.5],[1,0.5]];portConstraint=eastwest;fontSize=12;" parent="cGDgYfXUe002vliOC38j-1" vertex="1">
          <mxGeometry y="234" width="330" height="26" as="geometry" />
        </mxCell>
        <mxCell id="YJC0n_gU5u2Sfq8NGY93-31" value="timestamps() (created and updated fields)" style="text;strokeColor=none;fillColor=none;align=left;verticalAlign=top;spacingLeft=4;spacingRight=4;overflow=hidden;rotatable=0;points=[[0,0.5],[1,0.5]];portConstraint=eastwest;fontSize=12;" parent="cGDgYfXUe002vliOC38j-1" vertex="1">
          <mxGeometry y="260" width="330" height="26" as="geometry" />
        </mxCell>
        <mxCell id="cGDgYfXUe002vliOC38j-10" value="messages" style="swimlane;fontStyle=0;childLayout=stackLayout;horizontal=1;startSize=26;fillColor=none;horizontalStack=0;resizeParent=1;resizeParentMax=0;resizeLast=0;collapsible=1;marginBottom=0;fontSize=12;" parent="1" vertex="1">
          <mxGeometry x="1843" y="577" width="319" height="156" as="geometry" />
        </mxCell>
        <mxCell id="CMXJ-791xtNu_VCUBqrS-4" value="&lt;div&gt;Таблица для обработки запросов с контактной формы&lt;/div&gt;" style="text;html=1;align=center;verticalAlign=middle;resizable=0;points=[];autosize=1;strokeColor=none;fillColor=none;" parent="cGDgYfXUe002vliOC38j-10" vertex="1">
          <mxGeometry y="26" width="319" height="26" as="geometry" />
        </mxCell>
        <mxCell id="cGDgYfXUe002vliOC38j-11" value="id:  BIGINT PK" style="text;strokeColor=none;fillColor=none;align=left;verticalAlign=top;spacingLeft=4;spacingRight=4;overflow=hidden;rotatable=0;points=[[0,0.5],[1,0.5]];portConstraint=eastwest;fontSize=12;" parent="cGDgYfXUe002vliOC38j-10" vertex="1">
          <mxGeometry y="52" width="319" height="26" as="geometry" />
        </mxCell>
        <mxCell id="cGDgYfXUe002vliOC38j-14" value="email: VARCHAR(255) " style="text;strokeColor=none;fillColor=none;align=left;verticalAlign=top;spacingLeft=4;spacingRight=4;overflow=hidden;rotatable=0;points=[[0,0.5],[1,0.5]];portConstraint=eastwest;fontSize=12;" parent="cGDgYfXUe002vliOC38j-10" vertex="1">
          <mxGeometry y="78" width="319" height="26" as="geometry" />
        </mxCell>
        <mxCell id="cGDgYfXUe002vliOC38j-15" value="message: TEXT &#xa;" style="text;strokeColor=none;fillColor=none;align=left;verticalAlign=top;spacingLeft=4;spacingRight=4;overflow=hidden;rotatable=0;points=[[0,0.5],[1,0.5]];portConstraint=eastwest;fontSize=12;" parent="cGDgYfXUe002vliOC38j-10" vertex="1">
          <mxGeometry y="104" width="319" height="26" as="geometry" />
        </mxCell>
        <mxCell id="cGDgYfXUe002vliOC38j-18" value="softDeletes()" style="text;strokeColor=none;fillColor=none;align=left;verticalAlign=top;spacingLeft=4;spacingRight=4;overflow=hidden;rotatable=0;points=[[0,0.5],[1,0.5]];portConstraint=eastwest;fontSize=12;" parent="cGDgYfXUe002vliOC38j-10" vertex="1">
          <mxGeometry y="130" width="319" height="26" as="geometry" />
        </mxCell>
        <mxCell id="FeAwTVIBc3wcNW8rMhO_-6" style="edgeStyle=orthogonalEdgeStyle;rounded=0;orthogonalLoop=1;jettySize=auto;html=1;endArrow=ERmany;endFill=0;startSize=16;endSize=16;fontSize=12;" parent="1" source="cGDgYfXUe002vliOC38j-30" target="vvD_1Sxg6L-hfjobCTZO-1" edge="1">
          <mxGeometry relative="1" as="geometry">
            <Array as="points">
              <mxPoint x="899" y="452" />
              <mxPoint x="899" y="452" />
            </Array>
            <mxPoint x="1110" y="520" as="targetPoint" />
          </mxGeometry>
        </mxCell>
        <mxCell id="-TOr3bomNxEPlG0Ie4Ft-15" style="edgeStyle=orthogonalEdgeStyle;rounded=0;orthogonalLoop=1;jettySize=auto;html=1;endArrow=none;endFill=0;" parent="1" source="cGDgYfXUe002vliOC38j-30" target="-TOr3bomNxEPlG0Ie4Ft-8" edge="1">
          <mxGeometry relative="1" as="geometry">
            <Array as="points">
              <mxPoint x="1191" y="518" />
              <mxPoint x="1191" y="518" />
            </Array>
          </mxGeometry>
        </mxCell>
        <mxCell id="cGDgYfXUe002vliOC38j-30" value="orders" style="swimlane;fontStyle=0;childLayout=stackLayout;horizontal=1;startSize=26;fillColor=none;horizontalStack=0;resizeParent=1;resizeParentMax=0;resizeLast=0;collapsible=1;marginBottom=0;fontSize=12;" parent="1" vertex="1">
          <mxGeometry x="1000" y="40" width="270" height="468" as="geometry" />
        </mxCell>
        <mxCell id="cGDgYfXUe002vliOC38j-31" value="id: BIGINT PK" style="text;strokeColor=none;fillColor=none;align=left;verticalAlign=top;spacingLeft=4;spacingRight=4;overflow=hidden;rotatable=0;points=[[0,0.5],[1,0.5]];portConstraint=eastwest;fontSize=12;" parent="cGDgYfXUe002vliOC38j-30" vertex="1">
          <mxGeometry y="26" width="270" height="26" as="geometry" />
        </mxCell>
        <mxCell id="CMXJ-791xtNu_VCUBqrS-1" value="currency_id: BIGINT FK" style="text;strokeColor=none;fillColor=none;align=left;verticalAlign=top;spacingLeft=4;spacingRight=4;overflow=hidden;rotatable=0;points=[[0,0.5],[1,0.5]];portConstraint=eastwest;fontSize=12;" parent="cGDgYfXUe002vliOC38j-30" vertex="1">
          <mxGeometry y="52" width="270" height="26" as="geometry" />
        </mxCell>
        <mxCell id="YJC0n_gU5u2Sfq8NGY93-21" value="user_id:  BIGINT FK" style="text;strokeColor=none;fillColor=none;align=left;verticalAlign=top;spacingLeft=4;spacingRight=4;overflow=hidden;rotatable=0;points=[[0,0.5],[1,0.5]];portConstraint=eastwest;fontSize=12;" parent="cGDgYfXUe002vliOC38j-30" vertex="1">
          <mxGeometry y="78" width="270" height="26" as="geometry" />
        </mxCell>
        <mxCell id="YJC0n_gU5u2Sfq8NGY93-23" value="courier_id: BIGINT FK" style="text;strokeColor=none;fillColor=none;align=left;verticalAlign=top;spacingLeft=4;spacingRight=4;overflow=hidden;rotatable=0;points=[[0,0.5],[1,0.5]];portConstraint=eastwest;fontSize=12;" parent="cGDgYfXUe002vliOC38j-30" vertex="1">
          <mxGeometry y="104" width="270" height="26" as="geometry" />
        </mxCell>
        <mxCell id="YJC0n_gU5u2Sfq8NGY93-49" value="promocode_id: BIGINT FK" style="text;strokeColor=none;fillColor=none;align=left;verticalAlign=top;spacingLeft=4;spacingRight=4;overflow=hidden;rotatable=0;points=[[0,0.5],[1,0.5]];portConstraint=eastwest;fontSize=12;" parent="cGDgYfXUe002vliOC38j-30" vertex="1">
          <mxGeometry y="130" width="270" height="26" as="geometry" />
        </mxCell>
        <mxCell id="YUqSI7gn14ZWyJ7p8p8--1" value="storage_id: BIGINT FK " style="text;strokeColor=none;fillColor=none;align=left;verticalAlign=top;spacingLeft=4;spacingRight=4;overflow=hidden;rotatable=0;points=[[0,0.5],[1,0.5]];portConstraint=eastwest;fontSize=12;" parent="cGDgYfXUe002vliOC38j-30" vertex="1">
          <mxGeometry y="156" width="270" height="26" as="geometry" />
        </mxCell>
        <mxCell id="FJUWKiNPx8VhHTqM4ICh-1" value="name: VARCHAR(255) " style="text;strokeColor=none;fillColor=none;align=left;verticalAlign=top;spacingLeft=4;spacingRight=4;overflow=hidden;rotatable=0;points=[[0,0.5],[1,0.5]];portConstraint=eastwest;fontSize=12;" parent="cGDgYfXUe002vliOC38j-30" vertex="1">
          <mxGeometry y="182" width="270" height="26" as="geometry" />
        </mxCell>
        <mxCell id="cGDgYfXUe002vliOC38j-35" value="payment_status: BOOLEAN " style="text;strokeColor=none;fillColor=none;align=left;verticalAlign=top;spacingLeft=4;spacingRight=4;overflow=hidden;rotatable=0;points=[[0,0.5],[1,0.5]];portConstraint=eastwest;fontSize=12;" parent="cGDgYfXUe002vliOC38j-30" vertex="1">
          <mxGeometry y="208" width="270" height="26" as="geometry" />
        </mxCell>
        <mxCell id="ZE5WBzzTI7uvC2e-RDDq-1" value="payment_method: VARCHAR(255)" style="text;strokeColor=none;fillColor=none;align=left;verticalAlign=top;spacingLeft=4;spacingRight=4;overflow=hidden;rotatable=0;points=[[0,0.5],[1,0.5]];portConstraint=eastwest;fontSize=12;" parent="cGDgYfXUe002vliOC38j-30" vertex="1">
          <mxGeometry y="234" width="270" height="26" as="geometry" />
        </mxCell>
        <mxCell id="Sno1EIHvYguK26DR1np6-2" value="delivery_method: VARCHAR(255)" style="text;strokeColor=none;fillColor=none;align=left;verticalAlign=top;spacingLeft=4;spacingRight=4;overflow=hidden;rotatable=0;points=[[0,0.5],[1,0.5]];portConstraint=eastwest;fontSize=12;" parent="cGDgYfXUe002vliOC38j-30" vertex="1">
          <mxGeometry y="260" width="270" height="26" as="geometry" />
        </mxCell>
        <mxCell id="ZE5WBzzTI7uvC2e-RDDq-8" value="address: VARCHAR(255) " style="text;strokeColor=none;fillColor=none;align=left;verticalAlign=top;spacingLeft=4;spacingRight=4;overflow=hidden;rotatable=0;points=[[0,0.5],[1,0.5]];portConstraint=eastwest;fontSize=12;" parent="cGDgYfXUe002vliOC38j-30" vertex="1">
          <mxGeometry y="286" width="270" height="26" as="geometry" />
        </mxCell>
        <mxCell id="cGDgYfXUe002vliOC38j-38" value="post_index: VARCHAR(12) " style="text;strokeColor=none;fillColor=none;align=left;verticalAlign=top;spacingLeft=4;spacingRight=4;overflow=hidden;rotatable=0;points=[[0,0.5],[1,0.5]];portConstraint=eastwest;fontSize=12;" parent="cGDgYfXUe002vliOC38j-30" vertex="1">
          <mxGeometry y="312" width="270" height="26" as="geometry" />
        </mxCell>
        <mxCell id="ZE5WBzzTI7uvC2e-RDDq-11" value="phone: VARCHAR(16) " style="text;strokeColor=none;fillColor=none;align=left;verticalAlign=top;spacingLeft=4;spacingRight=4;overflow=hidden;rotatable=0;points=[[0,0.5],[1,0.5]];portConstraint=eastwest;fontSize=12;" parent="cGDgYfXUe002vliOC38j-30" vertex="1">
          <mxGeometry y="338" width="270" height="26" as="geometry" />
        </mxCell>
        <mxCell id="ZE5WBzzTI7uvC2e-RDDq-10" value="price: decimal(13,2) " style="text;strokeColor=none;fillColor=none;align=left;verticalAlign=top;spacingLeft=4;spacingRight=4;overflow=hidden;rotatable=0;points=[[0,0.5],[1,0.5]];portConstraint=eastwest;fontSize=12;" parent="cGDgYfXUe002vliOC38j-30" vertex="1">
          <mxGeometry y="364" width="270" height="26" as="geometry" />
        </mxCell>
        <mxCell id="ZE5WBzzTI7uvC2e-RDDq-12" value="status: VARCHAR(255) " style="text;strokeColor=none;fillColor=none;align=left;verticalAlign=top;spacingLeft=4;spacingRight=4;overflow=hidden;rotatable=0;points=[[0,0.5],[1,0.5]];portConstraint=eastwest;fontSize=12;" parent="cGDgYfXUe002vliOC38j-30" vertex="1">
          <mxGeometry y="390" width="270" height="26" as="geometry" />
        </mxCell>
        <mxCell id="ZE5WBzzTI7uvC2e-RDDq-14" value="date_delivered: DATETIME " style="text;strokeColor=none;fillColor=none;align=left;verticalAlign=top;spacingLeft=4;spacingRight=4;overflow=hidden;rotatable=0;points=[[0,0.5],[1,0.5]];portConstraint=eastwest;fontSize=12;" parent="cGDgYfXUe002vliOC38j-30" vertex="1">
          <mxGeometry y="416" width="270" height="26" as="geometry" />
        </mxCell>
        <mxCell id="YJC0n_gU5u2Sfq8NGY93-19" value="timestamps() (created and updated fkields)" style="text;strokeColor=none;fillColor=none;align=left;verticalAlign=top;spacingLeft=4;spacingRight=4;overflow=hidden;rotatable=0;points=[[0,0.5],[1,0.5]];portConstraint=eastwest;fontSize=12;" parent="cGDgYfXUe002vliOC38j-30" vertex="1">
          <mxGeometry y="442" width="270" height="26" as="geometry" />
        </mxCell>
        <mxCell id="ZE5WBzzTI7uvC2e-RDDq-29" value="galeries" style="swimlane;fontStyle=0;childLayout=stackLayout;horizontal=1;startSize=26;fillColor=none;horizontalStack=0;resizeParent=1;resizeParentMax=0;resizeLast=0;collapsible=1;marginBottom=0;fontSize=12;" parent="1" vertex="1">
          <mxGeometry x="292.5" y="864" width="191.5" height="104" as="geometry" />
        </mxCell>
        <mxCell id="CMXJ-791xtNu_VCUBqrS-15" value="id:  BIGINT PK" style="text;strokeColor=none;fillColor=none;align=left;verticalAlign=top;spacingLeft=4;spacingRight=4;overflow=hidden;rotatable=0;points=[[0,0.5],[1,0.5]];portConstraint=eastwest;fontSize=12;" parent="ZE5WBzzTI7uvC2e-RDDq-29" vertex="1">
          <mxGeometry y="26" width="191.5" height="26" as="geometry" />
        </mxCell>
        <mxCell id="ZE5WBzzTI7uvC2e-RDDq-30" value="offer_id:  BIGINT FK INDEX" style="text;strokeColor=none;fillColor=none;align=left;verticalAlign=top;spacingLeft=4;spacingRight=4;overflow=hidden;rotatable=0;points=[[0,0.5],[1,0.5]];portConstraint=eastwest;fontSize=12;" parent="ZE5WBzzTI7uvC2e-RDDq-29" vertex="1">
          <mxGeometry y="52" width="191.5" height="26" as="geometry" />
        </mxCell>
        <mxCell id="ZE5WBzzTI7uvC2e-RDDq-31" value="url: VARCHAR(255)" style="text;strokeColor=none;fillColor=none;align=left;verticalAlign=top;spacingLeft=4;spacingRight=4;overflow=hidden;rotatable=0;points=[[0,0.5],[1,0.5]];portConstraint=eastwest;fontSize=12;" parent="ZE5WBzzTI7uvC2e-RDDq-29" vertex="1">
          <mxGeometry y="78" width="191.5" height="26" as="geometry" />
        </mxCell>
        <mxCell id="FeAwTVIBc3wcNW8rMhO_-26" style="edgeStyle=orthogonalEdgeStyle;rounded=0;orthogonalLoop=1;jettySize=auto;html=1;endArrow=none;endFill=0;startSize=16;endSize=16;startArrow=ERmany;startFill=0;fontSize=12;" parent="1" source="FeAwTVIBc3wcNW8rMhO_-13" target="cGDgYfXUe002vliOC38j-1" edge="1">
          <mxGeometry relative="1" as="geometry">
            <mxPoint x="714" y="878" as="targetPoint" />
            <Array as="points">
              <mxPoint x="1299" y="1106" />
              <mxPoint x="1299" y="1106" />
            </Array>
          </mxGeometry>
        </mxCell>
        <mxCell id="FeAwTVIBc3wcNW8rMhO_-13" value="parameters" style="swimlane;fontStyle=0;childLayout=stackLayout;horizontal=1;startSize=26;fillColor=none;horizontalStack=0;resizeParent=1;resizeParentMax=0;resizeLast=0;collapsible=1;marginBottom=0;fontSize=12;" parent="1" vertex="1">
          <mxGeometry x="1330" y="1002" width="313" height="208" as="geometry" />
        </mxCell>
        <mxCell id="YJC0n_gU5u2Sfq8NGY93-70" value="Общие свойства товара, свободные для заполнения" style="text;html=1;align=center;verticalAlign=middle;resizable=0;points=[];autosize=1;strokeColor=none;fillColor=none;fontSize=12;" parent="FeAwTVIBc3wcNW8rMhO_-13" vertex="1">
          <mxGeometry y="26" width="313" height="26" as="geometry" />
        </mxCell>
        <mxCell id="CMXJ-791xtNu_VCUBqrS-14" value="id:  BIGINT PK" style="text;strokeColor=none;fillColor=none;align=left;verticalAlign=top;spacingLeft=4;spacingRight=4;overflow=hidden;rotatable=0;points=[[0,0.5],[1,0.5]];portConstraint=eastwest;fontSize=12;" parent="FeAwTVIBc3wcNW8rMhO_-13" vertex="1">
          <mxGeometry y="52" width="313" height="26" as="geometry" />
        </mxCell>
        <mxCell id="FeAwTVIBc3wcNW8rMhO_-14" value="item_id:  BIGINT FK" style="text;strokeColor=none;fillColor=none;align=left;verticalAlign=top;spacingLeft=4;spacingRight=4;overflow=hidden;rotatable=0;points=[[0,0.5],[1,0.5]];portConstraint=eastwest;fontSize=12;" parent="FeAwTVIBc3wcNW8rMhO_-13" vertex="1">
          <mxGeometry y="78" width="313" height="26" as="geometry" />
        </mxCell>
        <mxCell id="FeAwTVIBc3wcNW8rMhO_-24" value="param_name: VARCHAR(255)" style="text;strokeColor=none;fillColor=none;align=left;verticalAlign=top;spacingLeft=4;spacingRight=4;overflow=hidden;rotatable=0;points=[[0,0.5],[1,0.5]];portConstraint=eastwest;fontSize=12;" parent="FeAwTVIBc3wcNW8rMhO_-13" vertex="1">
          <mxGeometry y="104" width="313" height="26" as="geometry" />
        </mxCell>
        <mxCell id="iCxq5X1In6LRaXlKlyI5-4" value="param_name_rn: VARCHAR(255)" style="text;strokeColor=none;fillColor=none;align=left;verticalAlign=top;spacingLeft=4;spacingRight=4;overflow=hidden;rotatable=0;points=[[0,0.5],[1,0.5]];portConstraint=eastwest;fontSize=12;" vertex="1" parent="FeAwTVIBc3wcNW8rMhO_-13">
          <mxGeometry y="130" width="313" height="26" as="geometry" />
        </mxCell>
        <mxCell id="FeAwTVIBc3wcNW8rMhO_-25" value="param_value: VARCHAR(255) " style="text;strokeColor=none;fillColor=none;align=left;verticalAlign=top;spacingLeft=4;spacingRight=4;overflow=hidden;rotatable=0;points=[[0,0.5],[1,0.5]];portConstraint=eastwest;fontSize=12;" parent="FeAwTVIBc3wcNW8rMhO_-13" vertex="1">
          <mxGeometry y="156" width="313" height="26" as="geometry" />
        </mxCell>
        <mxCell id="iCxq5X1In6LRaXlKlyI5-5" value="param_value_en: VARCHAR(255) " style="text;strokeColor=none;fillColor=none;align=left;verticalAlign=top;spacingLeft=4;spacingRight=4;overflow=hidden;rotatable=0;points=[[0,0.5],[1,0.5]];portConstraint=eastwest;fontSize=12;" vertex="1" parent="FeAwTVIBc3wcNW8rMhO_-13">
          <mxGeometry y="182" width="313" height="26" as="geometry" />
        </mxCell>
        <mxCell id="YUqSI7gn14ZWyJ7p8p8--2" style="edgeStyle=orthogonalEdgeStyle;rounded=0;orthogonalLoop=1;jettySize=auto;html=1;endArrow=ERmany;endFill=0;startArrow=none;startFill=0;endSize=16;startSize=16;fontSize=12;" parent="1" source="FeAwTVIBc3wcNW8rMhO_-15" target="cGDgYfXUe002vliOC38j-30" edge="1">
          <mxGeometry relative="1" as="geometry">
            <Array as="points">
              <mxPoint x="1160" y="24" />
              <mxPoint x="1160" y="24" />
            </Array>
          </mxGeometry>
        </mxCell>
        <mxCell id="FeAwTVIBc3wcNW8rMhO_-15" value="storages" style="swimlane;fontStyle=0;childLayout=stackLayout;horizontal=1;startSize=26;fillColor=none;horizontalStack=0;resizeParent=1;resizeParentMax=0;resizeLast=0;collapsible=1;marginBottom=0;fontSize=12;" parent="1" vertex="1">
          <mxGeometry x="1050" y="-233" width="220" height="234" as="geometry" />
        </mxCell>
        <mxCell id="FeAwTVIBc3wcNW8rMhO_-16" value="id: BIGINT PK" style="text;strokeColor=none;fillColor=none;align=left;verticalAlign=top;spacingLeft=4;spacingRight=4;overflow=hidden;rotatable=0;points=[[0,0.5],[1,0.5]];portConstraint=eastwest;fontSize=12;" parent="FeAwTVIBc3wcNW8rMhO_-15" vertex="1">
          <mxGeometry y="26" width="220" height="26" as="geometry" />
        </mxCell>
        <mxCell id="FeAwTVIBc3wcNW8rMhO_-17" value="name: VARCHAR(255)" style="text;strokeColor=none;fillColor=none;align=left;verticalAlign=top;spacingLeft=4;spacingRight=4;overflow=hidden;rotatable=0;points=[[0,0.5],[1,0.5]];portConstraint=eastwest;fontSize=12;" parent="FeAwTVIBc3wcNW8rMhO_-15" vertex="1">
          <mxGeometry y="52" width="220" height="26" as="geometry" />
        </mxCell>
        <mxCell id="iCxq5X1In6LRaXlKlyI5-1" value="name_en: VARCHAR(255)" style="text;strokeColor=none;fillColor=none;align=left;verticalAlign=top;spacingLeft=4;spacingRight=4;overflow=hidden;rotatable=0;points=[[0,0.5],[1,0.5]];portConstraint=eastwest;fontSize=12;" vertex="1" parent="FeAwTVIBc3wcNW8rMhO_-15">
          <mxGeometry y="78" width="220" height="26" as="geometry" />
        </mxCell>
        <mxCell id="FeAwTVIBc3wcNW8rMhO_-18" value="address: VARCHAR(255)" style="text;strokeColor=none;fillColor=none;align=left;verticalAlign=top;spacingLeft=4;spacingRight=4;overflow=hidden;rotatable=0;points=[[0,0.5],[1,0.5]];portConstraint=eastwest;fontSize=12;" parent="FeAwTVIBc3wcNW8rMhO_-15" vertex="1">
          <mxGeometry y="104" width="220" height="26" as="geometry" />
        </mxCell>
        <mxCell id="iCxq5X1In6LRaXlKlyI5-2" value="address_en: VARCHAR(255)" style="text;strokeColor=none;fillColor=none;align=left;verticalAlign=top;spacingLeft=4;spacingRight=4;overflow=hidden;rotatable=0;points=[[0,0.5],[1,0.5]];portConstraint=eastwest;fontSize=12;" vertex="1" parent="FeAwTVIBc3wcNW8rMhO_-15">
          <mxGeometry y="130" width="220" height="26" as="geometry" />
        </mxCell>
        <mxCell id="FeAwTVIBc3wcNW8rMhO_-20" value="phone: VARCHAR(255) " style="text;strokeColor=none;fillColor=none;align=left;verticalAlign=top;spacingLeft=4;spacingRight=4;overflow=hidden;rotatable=0;points=[[0,0.5],[1,0.5]];portConstraint=eastwest;fontSize=12;" parent="FeAwTVIBc3wcNW8rMhO_-15" vertex="1">
          <mxGeometry y="156" width="220" height="26" as="geometry" />
        </mxCell>
        <mxCell id="FeAwTVIBc3wcNW8rMhO_-21" value="schedule: TEXT" style="text;strokeColor=none;fillColor=none;align=left;verticalAlign=top;spacingLeft=4;spacingRight=4;overflow=hidden;rotatable=0;points=[[0,0.5],[1,0.5]];portConstraint=eastwest;fontSize=12;" parent="FeAwTVIBc3wcNW8rMhO_-15" vertex="1">
          <mxGeometry y="182" width="220" height="26" as="geometry" />
        </mxCell>
        <mxCell id="iCxq5X1In6LRaXlKlyI5-3" value="schedule_en: TEXT" style="text;strokeColor=none;fillColor=none;align=left;verticalAlign=top;spacingLeft=4;spacingRight=4;overflow=hidden;rotatable=0;points=[[0,0.5],[1,0.5]];portConstraint=eastwest;fontSize=12;" vertex="1" parent="FeAwTVIBc3wcNW8rMhO_-15">
          <mxGeometry y="208" width="220" height="26" as="geometry" />
        </mxCell>
        <mxCell id="hjQHBtJrdqEXp9kS8Bs2-3" value="sessions" style="swimlane;fontStyle=0;childLayout=stackLayout;horizontal=1;startSize=26;fillColor=none;horizontalStack=0;resizeParent=1;resizeParentMax=0;resizeLast=0;collapsible=1;marginBottom=0;fontSize=12;" parent="1" vertex="1">
          <mxGeometry x="1853" y="140" width="260" height="182" as="geometry" />
        </mxCell>
        <mxCell id="hjQHBtJrdqEXp9kS8Bs2-4" value="id:  BIGINT PK" style="text;strokeColor=none;fillColor=none;align=left;verticalAlign=top;spacingLeft=4;spacingRight=4;overflow=hidden;rotatable=0;points=[[0,0.5],[1,0.5]];portConstraint=eastwest;fontSize=12;" parent="hjQHBtJrdqEXp9kS8Bs2-3" vertex="1">
          <mxGeometry y="26" width="260" height="26" as="geometry" />
        </mxCell>
        <mxCell id="hjQHBtJrdqEXp9kS8Bs2-5" value="user_id:  BIGINT  " style="text;strokeColor=none;fillColor=none;align=left;verticalAlign=top;spacingLeft=4;spacingRight=4;overflow=hidden;rotatable=0;points=[[0,0.5],[1,0.5]];portConstraint=eastwest;fontSize=12;" parent="hjQHBtJrdqEXp9kS8Bs2-3" vertex="1">
          <mxGeometry y="52" width="260" height="26" as="geometry" />
        </mxCell>
        <mxCell id="hjQHBtJrdqEXp9kS8Bs2-6" value="ip_address: VARCHAR(45)" style="text;strokeColor=none;fillColor=none;align=left;verticalAlign=top;spacingLeft=4;spacingRight=4;overflow=hidden;rotatable=0;points=[[0,0.5],[1,0.5]];portConstraint=eastwest;fontSize=12;" parent="hjQHBtJrdqEXp9kS8Bs2-3" vertex="1">
          <mxGeometry y="78" width="260" height="26" as="geometry" />
        </mxCell>
        <mxCell id="hjQHBtJrdqEXp9kS8Bs2-10" value="user_agent: TEXT " style="text;strokeColor=none;fillColor=none;align=left;verticalAlign=top;spacingLeft=4;spacingRight=4;overflow=hidden;rotatable=0;points=[[0,0.5],[1,0.5]];portConstraint=eastwest;fontSize=12;" parent="hjQHBtJrdqEXp9kS8Bs2-3" vertex="1">
          <mxGeometry y="104" width="260" height="26" as="geometry" />
        </mxCell>
        <mxCell id="hjQHBtJrdqEXp9kS8Bs2-7" value="payload: TEXT" style="text;strokeColor=none;fillColor=none;align=left;verticalAlign=top;spacingLeft=4;spacingRight=4;overflow=hidden;rotatable=0;points=[[0,0.5],[1,0.5]];portConstraint=eastwest;fontSize=12;" parent="hjQHBtJrdqEXp9kS8Bs2-3" vertex="1">
          <mxGeometry y="130" width="260" height="26" as="geometry" />
        </mxCell>
        <mxCell id="hjQHBtJrdqEXp9kS8Bs2-8" value="last_activity: INT " style="text;strokeColor=none;fillColor=none;align=left;verticalAlign=top;spacingLeft=4;spacingRight=4;overflow=hidden;rotatable=0;points=[[0,0.5],[1,0.5]];portConstraint=eastwest;fontSize=12;" parent="hjQHBtJrdqEXp9kS8Bs2-3" vertex="1">
          <mxGeometry y="156" width="260" height="26" as="geometry" />
        </mxCell>
        <mxCell id="7T5_bjkfD0b6_hwlpqSb-32" style="edgeStyle=orthogonalEdgeStyle;rounded=0;orthogonalLoop=1;jettySize=auto;html=1;startArrow=none;startFill=0;endArrow=ERmany;endFill=0;endSize=16;" parent="1" source="7T5_bjkfD0b6_hwlpqSb-28" target="7T5_bjkfD0b6_hwlpqSb-15" edge="1">
          <mxGeometry relative="1" as="geometry">
            <Array as="points">
              <mxPoint x="782" y="1607" />
              <mxPoint x="782" y="1607" />
            </Array>
          </mxGeometry>
        </mxCell>
        <mxCell id="gBOeq5-oKmPeRh7g_FEv-1" value="categories " style="swimlane;fontStyle=0;childLayout=stackLayout;horizontal=1;startSize=26;fillColor=none;horizontalStack=0;resizeParent=1;resizeParentMax=0;resizeLast=0;collapsible=1;marginBottom=0;fontSize=12;" parent="1" vertex="1">
          <mxGeometry x="1000" y="1516" width="209" height="130" as="geometry" />
        </mxCell>
        <mxCell id="gBOeq5-oKmPeRh7g_FEv-2" value="id:  BIGINT PK" style="text;strokeColor=none;fillColor=none;align=left;verticalAlign=top;spacingLeft=4;spacingRight=4;overflow=hidden;rotatable=0;points=[[0,0.5],[1,0.5]];portConstraint=eastwest;fontSize=12;" parent="gBOeq5-oKmPeRh7g_FEv-1" vertex="1">
          <mxGeometry y="26" width="209" height="26" as="geometry" />
        </mxCell>
        <mxCell id="gBOeq5-oKmPeRh7g_FEv-3" value="name: VARCHAR(255) UNIQUE" style="text;strokeColor=none;fillColor=none;align=left;verticalAlign=top;spacingLeft=4;spacingRight=4;overflow=hidden;rotatable=0;points=[[0,0.5],[1,0.5]];portConstraint=eastwest;fontSize=12;" parent="gBOeq5-oKmPeRh7g_FEv-1" vertex="1">
          <mxGeometry y="52" width="209" height="26" as="geometry" />
        </mxCell>
        <mxCell id="7T5_bjkfD0b6_hwlpqSb-12" value="name_en: VARCHAR(255) UNIQUE" style="text;strokeColor=none;fillColor=none;align=left;verticalAlign=top;spacingLeft=4;spacingRight=4;overflow=hidden;rotatable=0;points=[[0,0.5],[1,0.5]];portConstraint=eastwest;fontSize=12;" parent="gBOeq5-oKmPeRh7g_FEv-1" vertex="1">
          <mxGeometry y="78" width="209" height="26" as="geometry" />
        </mxCell>
        <mxCell id="FK0QgGSFEG3AJv8Ngbvw-1" value="alias: VARCHAR(255) UNIQUE" style="text;strokeColor=none;fillColor=none;align=left;verticalAlign=top;spacingLeft=4;spacingRight=4;overflow=hidden;rotatable=0;points=[[0,0.5],[1,0.5]];portConstraint=eastwest;fontSize=12;" parent="gBOeq5-oKmPeRh7g_FEv-1" vertex="1">
          <mxGeometry y="104" width="209" height="26" as="geometry" />
        </mxCell>
        <mxCell id="vvD_1Sxg6L-hfjobCTZO-1" value="offer_order" style="swimlane;fontStyle=0;childLayout=stackLayout;horizontal=1;startSize=26;fillColor=none;horizontalStack=0;resizeParent=1;resizeParentMax=0;resizeLast=0;collapsible=1;marginBottom=0;fontSize=12;" parent="1" vertex="1">
          <mxGeometry x="697" y="392" width="171" height="156" as="geometry" />
        </mxCell>
        <mxCell id="vvD_1Sxg6L-hfjobCTZO-2" value="id:  BIGINT" style="text;strokeColor=none;fillColor=none;align=left;verticalAlign=top;spacingLeft=4;spacingRight=4;overflow=hidden;rotatable=0;points=[[0,0.5],[1,0.5]];portConstraint=eastwest;fontSize=12;" parent="vvD_1Sxg6L-hfjobCTZO-1" vertex="1">
          <mxGeometry y="26" width="171" height="26" as="geometry" />
        </mxCell>
        <mxCell id="vvD_1Sxg6L-hfjobCTZO-8" value="order_id: BIGINT FK" style="text;strokeColor=none;fillColor=none;align=left;verticalAlign=top;spacingLeft=4;spacingRight=4;overflow=hidden;rotatable=0;points=[[0,0.5],[1,0.5]];portConstraint=eastwest;fontSize=12;" parent="vvD_1Sxg6L-hfjobCTZO-1" vertex="1">
          <mxGeometry y="52" width="171" height="26" as="geometry" />
        </mxCell>
        <mxCell id="YJC0n_gU5u2Sfq8NGY93-83" value="offer_id: BIGINT FK" style="text;strokeColor=none;fillColor=none;align=left;verticalAlign=top;spacingLeft=4;spacingRight=4;overflow=hidden;rotatable=0;points=[[0,0.5],[1,0.5]];portConstraint=eastwest;fontSize=12;" parent="vvD_1Sxg6L-hfjobCTZO-1" vertex="1">
          <mxGeometry y="78" width="171" height="26" as="geometry" />
        </mxCell>
        <mxCell id="vvD_1Sxg6L-hfjobCTZO-12" value="count: UNSIGNED TINYINT" style="text;strokeColor=none;fillColor=none;align=left;verticalAlign=top;spacingLeft=4;spacingRight=4;overflow=hidden;rotatable=0;points=[[0,0.5],[1,0.5]];portConstraint=eastwest;fontSize=12;" parent="vvD_1Sxg6L-hfjobCTZO-1" vertex="1">
          <mxGeometry y="104" width="171" height="26" as="geometry" />
        </mxCell>
        <mxCell id="CMXJ-791xtNu_VCUBqrS-65" value="price: decimal(11,2)" style="text;strokeColor=none;fillColor=none;align=left;verticalAlign=top;spacingLeft=4;spacingRight=4;overflow=hidden;rotatable=0;points=[[0,0.5],[1,0.5]];portConstraint=eastwest;fontSize=12;" parent="vvD_1Sxg6L-hfjobCTZO-1" vertex="1">
          <mxGeometry y="130" width="171" height="26" as="geometry" />
        </mxCell>
        <mxCell id="YJC0n_gU5u2Sfq8NGY93-1" value="failed_jobs" style="swimlane;fontStyle=0;childLayout=stackLayout;horizontal=1;startSize=26;fillColor=none;horizontalStack=0;resizeParent=1;resizeParentMax=0;resizeLast=0;collapsible=1;marginBottom=0;fontSize=12;" parent="1" vertex="1">
          <mxGeometry x="1853" y="333" width="260" height="208" as="geometry" />
        </mxCell>
        <mxCell id="YJC0n_gU5u2Sfq8NGY93-2" value="id:  BIGINT PK" style="text;strokeColor=none;fillColor=none;align=left;verticalAlign=top;spacingLeft=4;spacingRight=4;overflow=hidden;rotatable=0;points=[[0,0.5],[1,0.5]];portConstraint=eastwest;fontSize=12;" parent="YJC0n_gU5u2Sfq8NGY93-1" vertex="1">
          <mxGeometry y="26" width="260" height="26" as="geometry" />
        </mxCell>
        <mxCell id="YJC0n_gU5u2Sfq8NGY93-3" value="uuid:  VARCHAR (255) UNIQUE" style="text;strokeColor=none;fillColor=none;align=left;verticalAlign=top;spacingLeft=4;spacingRight=4;overflow=hidden;rotatable=0;points=[[0,0.5],[1,0.5]];portConstraint=eastwest;fontSize=12;" parent="YJC0n_gU5u2Sfq8NGY93-1" vertex="1">
          <mxGeometry y="52" width="260" height="26" as="geometry" />
        </mxCell>
        <mxCell id="YJC0n_gU5u2Sfq8NGY93-4" value="connection: TEXT" style="text;strokeColor=none;fillColor=none;align=left;verticalAlign=top;spacingLeft=4;spacingRight=4;overflow=hidden;rotatable=0;points=[[0,0.5],[1,0.5]];portConstraint=eastwest;fontSize=12;" parent="YJC0n_gU5u2Sfq8NGY93-1" vertex="1">
          <mxGeometry y="78" width="260" height="26" as="geometry" />
        </mxCell>
        <mxCell id="YJC0n_gU5u2Sfq8NGY93-5" value="queue: TEXT " style="text;strokeColor=none;fillColor=none;align=left;verticalAlign=top;spacingLeft=4;spacingRight=4;overflow=hidden;rotatable=0;points=[[0,0.5],[1,0.5]];portConstraint=eastwest;fontSize=12;" parent="YJC0n_gU5u2Sfq8NGY93-1" vertex="1">
          <mxGeometry y="104" width="260" height="26" as="geometry" />
        </mxCell>
        <mxCell id="YJC0n_gU5u2Sfq8NGY93-6" value="payload: LONGTEXT" style="text;strokeColor=none;fillColor=none;align=left;verticalAlign=top;spacingLeft=4;spacingRight=4;overflow=hidden;rotatable=0;points=[[0,0.5],[1,0.5]];portConstraint=eastwest;fontSize=12;" parent="YJC0n_gU5u2Sfq8NGY93-1" vertex="1">
          <mxGeometry y="130" width="260" height="26" as="geometry" />
        </mxCell>
        <mxCell id="YJC0n_gU5u2Sfq8NGY93-7" value="exception:LONGTEXT " style="text;strokeColor=none;fillColor=none;align=left;verticalAlign=top;spacingLeft=4;spacingRight=4;overflow=hidden;rotatable=0;points=[[0,0.5],[1,0.5]];portConstraint=eastwest;fontSize=12;" parent="YJC0n_gU5u2Sfq8NGY93-1" vertex="1">
          <mxGeometry y="156" width="260" height="26" as="geometry" />
        </mxCell>
        <mxCell id="YJC0n_gU5u2Sfq8NGY93-8" value="failed_at: timestamp DEFAULT useCurrent" style="text;strokeColor=none;fillColor=none;align=left;verticalAlign=top;spacingLeft=4;spacingRight=4;overflow=hidden;rotatable=0;points=[[0,0.5],[1,0.5]];portConstraint=eastwest;fontSize=12;" parent="YJC0n_gU5u2Sfq8NGY93-1" vertex="1">
          <mxGeometry y="182" width="260" height="26" as="geometry" />
        </mxCell>
        <mxCell id="YJC0n_gU5u2Sfq8NGY93-9" value="&lt;div&gt;Системные таблицы:&lt;/div&gt;" style="text;html=1;align=center;verticalAlign=middle;resizable=0;points=[];autosize=1;strokeColor=none;fillColor=none;fontSize=12;" parent="1" vertex="1">
          <mxGeometry x="1854" y="107" width="136" height="26" as="geometry" />
        </mxCell>
        <mxCell id="YJC0n_gU5u2Sfq8NGY93-10" value="personal_access_tokens" style="swimlane;fontStyle=0;childLayout=stackLayout;horizontal=1;startSize=26;fillColor=none;horizontalStack=0;resizeParent=1;resizeParentMax=0;resizeLast=0;collapsible=1;marginBottom=0;fontSize=12;" parent="1" vertex="1">
          <mxGeometry x="2144" y="260" width="260" height="234" as="geometry" />
        </mxCell>
        <mxCell id="YJC0n_gU5u2Sfq8NGY93-11" value="id:  BIGINT PK" style="text;strokeColor=none;fillColor=none;align=left;verticalAlign=top;spacingLeft=4;spacingRight=4;overflow=hidden;rotatable=0;points=[[0,0.5],[1,0.5]];portConstraint=eastwest;fontSize=12;" parent="YJC0n_gU5u2Sfq8NGY93-10" vertex="1">
          <mxGeometry y="26" width="260" height="26" as="geometry" />
        </mxCell>
        <mxCell id="YJC0n_gU5u2Sfq8NGY93-12" value="tokenable_id: BIGINT " style="text;strokeColor=none;fillColor=none;align=left;verticalAlign=top;spacingLeft=4;spacingRight=4;overflow=hidden;rotatable=0;points=[[0,0.5],[1,0.5]];portConstraint=eastwest;fontSize=12;" parent="YJC0n_gU5u2Sfq8NGY93-10" vertex="1">
          <mxGeometry y="52" width="260" height="26" as="geometry" />
        </mxCell>
        <mxCell id="YJC0n_gU5u2Sfq8NGY93-13" value="tokenable_type: VARCHAR(255)" style="text;strokeColor=none;fillColor=none;align=left;verticalAlign=top;spacingLeft=4;spacingRight=4;overflow=hidden;rotatable=0;points=[[0,0.5],[1,0.5]];portConstraint=eastwest;fontSize=12;" parent="YJC0n_gU5u2Sfq8NGY93-10" vertex="1">
          <mxGeometry y="78" width="260" height="26" as="geometry" />
        </mxCell>
        <mxCell id="YJC0n_gU5u2Sfq8NGY93-14" value="name: VARCHAR(255) " style="text;strokeColor=none;fillColor=none;align=left;verticalAlign=top;spacingLeft=4;spacingRight=4;overflow=hidden;rotatable=0;points=[[0,0.5],[1,0.5]];portConstraint=eastwest;fontSize=12;" parent="YJC0n_gU5u2Sfq8NGY93-10" vertex="1">
          <mxGeometry y="104" width="260" height="26" as="geometry" />
        </mxCell>
        <mxCell id="YJC0n_gU5u2Sfq8NGY93-15" value="token: VARCHAR(64) UNIQUE" style="text;strokeColor=none;fillColor=none;align=left;verticalAlign=top;spacingLeft=4;spacingRight=4;overflow=hidden;rotatable=0;points=[[0,0.5],[1,0.5]];portConstraint=eastwest;fontSize=12;" parent="YJC0n_gU5u2Sfq8NGY93-10" vertex="1">
          <mxGeometry y="130" width="260" height="26" as="geometry" />
        </mxCell>
        <mxCell id="YJC0n_gU5u2Sfq8NGY93-16" value="abilities:TEXT " style="text;strokeColor=none;fillColor=none;align=left;verticalAlign=top;spacingLeft=4;spacingRight=4;overflow=hidden;rotatable=0;points=[[0,0.5],[1,0.5]];portConstraint=eastwest;fontSize=12;" parent="YJC0n_gU5u2Sfq8NGY93-10" vertex="1">
          <mxGeometry y="156" width="260" height="26" as="geometry" />
        </mxCell>
        <mxCell id="YJC0n_gU5u2Sfq8NGY93-17" value="last_used_at:timestamp " style="text;strokeColor=none;fillColor=none;align=left;verticalAlign=top;spacingLeft=4;spacingRight=4;overflow=hidden;rotatable=0;points=[[0,0.5],[1,0.5]];portConstraint=eastwest;fontSize=12;" parent="YJC0n_gU5u2Sfq8NGY93-10" vertex="1">
          <mxGeometry y="182" width="260" height="26" as="geometry" />
        </mxCell>
        <mxCell id="YJC0n_gU5u2Sfq8NGY93-18" value="timestamps() (created and updated fkields)" style="text;strokeColor=none;fillColor=none;align=left;verticalAlign=top;spacingLeft=4;spacingRight=4;overflow=hidden;rotatable=0;points=[[0,0.5],[1,0.5]];portConstraint=eastwest;fontSize=12;" parent="YJC0n_gU5u2Sfq8NGY93-10" vertex="1">
          <mxGeometry y="208" width="260" height="26" as="geometry" />
        </mxCell>
        <mxCell id="YJC0n_gU5u2Sfq8NGY93-48" style="edgeStyle=orthogonalEdgeStyle;rounded=0;orthogonalLoop=1;jettySize=auto;html=1;fontSize=12;startArrow=none;startFill=0;endArrow=ERmany;endFill=0;startSize=16;endSize=16;" parent="1" source="YJC0n_gU5u2Sfq8NGY93-32" target="cGDgYfXUe002vliOC38j-30" edge="1">
          <mxGeometry relative="1" as="geometry">
            <Array as="points">
              <mxPoint x="1289" y="432" />
              <mxPoint x="1289" y="432" />
            </Array>
          </mxGeometry>
        </mxCell>
        <mxCell id="YJC0n_gU5u2Sfq8NGY93-32" value="promocodes" style="swimlane;fontStyle=0;childLayout=stackLayout;horizontal=1;startSize=26;fillColor=#FF3333;horizontalStack=0;resizeParent=1;resizeParentMax=0;resizeLast=0;collapsible=1;marginBottom=0;fontSize=12;" parent="1" vertex="1">
          <mxGeometry x="1358" y="352" width="220" height="156" as="geometry" />
        </mxCell>
        <mxCell id="YJC0n_gU5u2Sfq8NGY93-33" value="id:  BIGINT PK" style="text;strokeColor=none;fillColor=none;align=left;verticalAlign=top;spacingLeft=4;spacingRight=4;overflow=hidden;rotatable=0;points=[[0,0.5],[1,0.5]];portConstraint=eastwest;fontSize=12;" parent="YJC0n_gU5u2Sfq8NGY93-32" vertex="1">
          <mxGeometry y="26" width="220" height="26" as="geometry" />
        </mxCell>
        <mxCell id="YJC0n_gU5u2Sfq8NGY93-36" value="currency_id: BIGINT FK &#xa;" style="text;strokeColor=none;fillColor=none;align=left;verticalAlign=top;spacingLeft=4;spacingRight=4;overflow=hidden;rotatable=0;points=[[0,0.5],[1,0.5]];portConstraint=eastwest;fontSize=12;" parent="YJC0n_gU5u2Sfq8NGY93-32" vertex="1">
          <mxGeometry y="52" width="220" height="26" as="geometry" />
        </mxCell>
        <mxCell id="YJC0n_gU5u2Sfq8NGY93-34" value="code: VARCHAR(18) " style="text;strokeColor=none;fillColor=none;align=left;verticalAlign=top;spacingLeft=4;spacingRight=4;overflow=hidden;rotatable=0;points=[[0,0.5],[1,0.5]];portConstraint=eastwest;fontSize=12;" parent="YJC0n_gU5u2Sfq8NGY93-32" vertex="1">
          <mxGeometry y="78" width="220" height="26" as="geometry" />
        </mxCell>
        <mxCell id="YJC0n_gU5u2Sfq8NGY93-35" value="sum: UNSIGNED SMALLINT " style="text;strokeColor=none;fillColor=none;align=left;verticalAlign=top;spacingLeft=4;spacingRight=4;overflow=hidden;rotatable=0;points=[[0,0.5],[1,0.5]];portConstraint=eastwest;fontSize=12;" parent="YJC0n_gU5u2Sfq8NGY93-32" vertex="1">
          <mxGeometry y="104" width="220" height="26" as="geometry" />
        </mxCell>
        <mxCell id="YJC0n_gU5u2Sfq8NGY93-37" value="softDeletes()" style="text;strokeColor=none;fillColor=none;align=left;verticalAlign=top;spacingLeft=4;spacingRight=4;overflow=hidden;rotatable=0;points=[[0,0.5],[1,0.5]];portConstraint=eastwest;fontSize=12;" parent="YJC0n_gU5u2Sfq8NGY93-32" vertex="1">
          <mxGeometry y="130" width="220" height="26" as="geometry" />
        </mxCell>
        <mxCell id="YJC0n_gU5u2Sfq8NGY93-77" value="comments" style="swimlane;fontStyle=0;childLayout=stackLayout;horizontal=1;startSize=26;fillColor=#FF3333;horizontalStack=0;resizeParent=1;resizeParentMax=0;resizeLast=0;collapsible=1;marginBottom=0;fontSize=12;" parent="1" vertex="1">
          <mxGeometry x="294" y="592" width="190" height="130" as="geometry" />
        </mxCell>
        <mxCell id="CMXJ-791xtNu_VCUBqrS-13" value="id:  BIGINT PK" style="text;strokeColor=none;fillColor=none;align=left;verticalAlign=top;spacingLeft=4;spacingRight=4;overflow=hidden;rotatable=0;points=[[0,0.5],[1,0.5]];portConstraint=eastwest;fontSize=12;" parent="YJC0n_gU5u2Sfq8NGY93-77" vertex="1">
          <mxGeometry y="26" width="190" height="26" as="geometry" />
        </mxCell>
        <mxCell id="YJC0n_gU5u2Sfq8NGY93-79" value="offer_id:  BIGINT FK" style="text;strokeColor=none;fillColor=none;align=left;verticalAlign=top;spacingLeft=4;spacingRight=4;overflow=hidden;rotatable=0;points=[[0,0.5],[1,0.5]];portConstraint=eastwest;fontSize=12;" parent="YJC0n_gU5u2Sfq8NGY93-77" vertex="1">
          <mxGeometry y="52" width="190" height="26" as="geometry" />
        </mxCell>
        <mxCell id="YJC0n_gU5u2Sfq8NGY93-80" value="rating: UNSIGNED TYNYINT" style="text;strokeColor=none;fillColor=none;align=left;verticalAlign=top;spacingLeft=4;spacingRight=4;overflow=hidden;rotatable=0;points=[[0,0.5],[1,0.5]];portConstraint=eastwest;fontSize=12;" parent="YJC0n_gU5u2Sfq8NGY93-77" vertex="1">
          <mxGeometry y="78" width="190" height="26" as="geometry" />
        </mxCell>
        <mxCell id="YJC0n_gU5u2Sfq8NGY93-81" value="comment: TEXT" style="text;strokeColor=none;fillColor=none;align=left;verticalAlign=top;spacingLeft=4;spacingRight=4;overflow=hidden;rotatable=0;points=[[0,0.5],[1,0.5]];portConstraint=eastwest;fontSize=12;" parent="YJC0n_gU5u2Sfq8NGY93-77" vertex="1">
          <mxGeometry y="104" width="190" height="26" as="geometry" />
        </mxCell>
        <mxCell id="7T5_bjkfD0b6_hwlpqSb-4" value="password_resets" style="swimlane;fontStyle=0;childLayout=stackLayout;horizontal=1;startSize=26;fillColor=none;horizontalStack=0;resizeParent=1;resizeParentMax=0;resizeLast=0;collapsible=1;marginBottom=0;fontSize=12;" parent="1" vertex="1">
          <mxGeometry x="2144" y="142" width="260" height="104" as="geometry" />
        </mxCell>
        <mxCell id="7T5_bjkfD0b6_hwlpqSb-5" value="email:  VARCHAR(255) INDEX" style="text;strokeColor=none;fillColor=none;align=left;verticalAlign=top;spacingLeft=4;spacingRight=4;overflow=hidden;rotatable=0;points=[[0,0.5],[1,0.5]];portConstraint=eastwest;fontSize=12;" parent="7T5_bjkfD0b6_hwlpqSb-4" vertex="1">
          <mxGeometry y="26" width="260" height="26" as="geometry" />
        </mxCell>
        <mxCell id="7T5_bjkfD0b6_hwlpqSb-6" value="token:  VARCHAR(255)  " style="text;strokeColor=none;fillColor=none;align=left;verticalAlign=top;spacingLeft=4;spacingRight=4;overflow=hidden;rotatable=0;points=[[0,0.5],[1,0.5]];portConstraint=eastwest;fontSize=12;" parent="7T5_bjkfD0b6_hwlpqSb-4" vertex="1">
          <mxGeometry y="52" width="260" height="26" as="geometry" />
        </mxCell>
        <mxCell id="7T5_bjkfD0b6_hwlpqSb-7" value="created_at: timestamp" style="text;strokeColor=none;fillColor=none;align=left;verticalAlign=top;spacingLeft=4;spacingRight=4;overflow=hidden;rotatable=0;points=[[0,0.5],[1,0.5]];portConstraint=eastwest;fontSize=12;" parent="7T5_bjkfD0b6_hwlpqSb-4" vertex="1">
          <mxGeometry y="78" width="260" height="26" as="geometry" />
        </mxCell>
        <mxCell id="7T5_bjkfD0b6_hwlpqSb-29" style="edgeStyle=orthogonalEdgeStyle;rounded=0;orthogonalLoop=1;jettySize=auto;html=1;endArrow=ERmany;endFill=0;endSize=16;startArrow=none;" parent="1" source="7T5_bjkfD0b6_hwlpqSb-27" target="7T5_bjkfD0b6_hwlpqSb-21" edge="1">
          <mxGeometry relative="1" as="geometry">
            <mxPoint x="1237" y="1540" as="targetPoint" />
          </mxGeometry>
        </mxCell>
        <mxCell id="7T5_bjkfD0b6_hwlpqSb-15" value="shapes" style="swimlane;fontStyle=0;childLayout=stackLayout;horizontal=1;startSize=26;fillColor=none;horizontalStack=0;resizeParent=1;resizeParentMax=0;resizeLast=0;collapsible=1;marginBottom=0;fontSize=12;" parent="1" vertex="1">
          <mxGeometry x="682.5" y="1379" width="200" height="156" as="geometry" />
        </mxCell>
        <mxCell id="7T5_bjkfD0b6_hwlpqSb-16" value="id:  BIGINT PK" style="text;strokeColor=none;fillColor=none;align=left;verticalAlign=top;spacingLeft=4;spacingRight=4;overflow=hidden;rotatable=0;points=[[0,0.5],[1,0.5]];portConstraint=eastwest;fontSize=12;" parent="7T5_bjkfD0b6_hwlpqSb-15" vertex="1">
          <mxGeometry y="26" width="200" height="26" as="geometry" />
        </mxCell>
        <mxCell id="7T5_bjkfD0b6_hwlpqSb-31" value="category_id: BIGINT FK&#xa;" style="text;strokeColor=none;fillColor=none;align=left;verticalAlign=top;spacingLeft=4;spacingRight=4;overflow=hidden;rotatable=0;points=[[0,0.5],[1,0.5]];portConstraint=eastwest;fontSize=12;" parent="7T5_bjkfD0b6_hwlpqSb-15" vertex="1">
          <mxGeometry y="52" width="200" height="26" as="geometry" />
        </mxCell>
        <mxCell id="7T5_bjkfD0b6_hwlpqSb-17" value="name: VARCHAR(255)" style="text;strokeColor=none;fillColor=none;align=left;verticalAlign=top;spacingLeft=4;spacingRight=4;overflow=hidden;rotatable=0;points=[[0,0.5],[1,0.5]];portConstraint=eastwest;fontSize=12;" parent="7T5_bjkfD0b6_hwlpqSb-15" vertex="1">
          <mxGeometry y="78" width="200" height="26" as="geometry" />
        </mxCell>
        <mxCell id="7T5_bjkfD0b6_hwlpqSb-18" value="name_en: VARCHAR(255)" style="text;strokeColor=none;fillColor=none;align=left;verticalAlign=top;spacingLeft=4;spacingRight=4;overflow=hidden;rotatable=0;points=[[0,0.5],[1,0.5]];portConstraint=eastwest;fontSize=12;" parent="7T5_bjkfD0b6_hwlpqSb-15" vertex="1">
          <mxGeometry y="104" width="200" height="26" as="geometry" />
        </mxCell>
        <mxCell id="CYorcgna-Yo7nObwUySB-10" value="global: BOOLEAN&#xa;" style="text;strokeColor=none;fillColor=none;align=left;verticalAlign=top;spacingLeft=4;spacingRight=4;overflow=hidden;rotatable=0;points=[[0,0.5],[1,0.5]];portConstraint=eastwest;fontSize=12;" parent="7T5_bjkfD0b6_hwlpqSb-15" vertex="1">
          <mxGeometry y="130" width="200" height="26" as="geometry" />
        </mxCell>
        <mxCell id="7T5_bjkfD0b6_hwlpqSb-21" value="shapes_options" style="swimlane;fontStyle=0;childLayout=stackLayout;horizontal=1;startSize=26;fillColor=none;horizontalStack=0;resizeParent=1;resizeParentMax=0;resizeLast=0;collapsible=1;marginBottom=0;fontSize=12;" parent="1" vertex="1">
          <mxGeometry x="684" y="1143" width="200" height="130" as="geometry" />
        </mxCell>
        <mxCell id="CYorcgna-Yo7nObwUySB-12" value="id:  BIGINT PK" style="text;strokeColor=none;fillColor=none;align=left;verticalAlign=top;spacingLeft=4;spacingRight=4;overflow=hidden;rotatable=0;points=[[0,0.5],[1,0.5]];portConstraint=eastwest;fontSize=12;" parent="7T5_bjkfD0b6_hwlpqSb-21" vertex="1">
          <mxGeometry y="26" width="200" height="26" as="geometry" />
        </mxCell>
        <mxCell id="7T5_bjkfD0b6_hwlpqSb-22" value="shape_id:  BIGINT FK" style="text;strokeColor=none;fillColor=none;align=left;verticalAlign=top;spacingLeft=4;spacingRight=4;overflow=hidden;rotatable=0;points=[[0,0.5],[1,0.5]];portConstraint=eastwest;fontSize=12;" parent="7T5_bjkfD0b6_hwlpqSb-21" vertex="1">
          <mxGeometry y="52" width="200" height="26" as="geometry" />
        </mxCell>
        <mxCell id="7T5_bjkfD0b6_hwlpqSb-23" value="value: VARCHAR(255)" style="text;strokeColor=none;fillColor=none;align=left;verticalAlign=top;spacingLeft=4;spacingRight=4;overflow=hidden;rotatable=0;points=[[0,0.5],[1,0.5]];portConstraint=eastwest;fontSize=12;" parent="7T5_bjkfD0b6_hwlpqSb-21" vertex="1">
          <mxGeometry y="78" width="200" height="26" as="geometry" />
        </mxCell>
        <mxCell id="7T5_bjkfD0b6_hwlpqSb-24" value="value_en: VARCHAR(255)" style="text;strokeColor=none;fillColor=none;align=left;verticalAlign=top;spacingLeft=4;spacingRight=4;overflow=hidden;rotatable=0;points=[[0,0.5],[1,0.5]];portConstraint=eastwest;fontSize=12;" parent="7T5_bjkfD0b6_hwlpqSb-21" vertex="1">
          <mxGeometry y="104" width="200" height="26" as="geometry" />
        </mxCell>
        <mxCell id="CMXJ-791xtNu_VCUBqrS-2" style="edgeStyle=orthogonalEdgeStyle;rounded=0;orthogonalLoop=1;jettySize=auto;html=1;endArrow=ERmany;endFill=0;endSize=16;startArrow=none;" parent="1" source="7T5_bjkfD0b6_hwlpqSb-33" target="YJC0n_gU5u2Sfq8NGY93-32" edge="1">
          <mxGeometry relative="1" as="geometry" />
        </mxCell>
        <mxCell id="CMXJ-791xtNu_VCUBqrS-3" style="edgeStyle=orthogonalEdgeStyle;rounded=0;orthogonalLoop=1;jettySize=auto;html=1;endArrow=ERmany;endFill=0;endSize=16;" parent="1" source="7T5_bjkfD0b6_hwlpqSb-34" target="cGDgYfXUe002vliOC38j-30" edge="1">
          <mxGeometry relative="1" as="geometry" />
        </mxCell>
        <mxCell id="7T5_bjkfD0b6_hwlpqSb-34" value="currencies" style="swimlane;fontStyle=0;childLayout=stackLayout;horizontal=1;startSize=26;fillColor=none;horizontalStack=0;resizeParent=1;resizeParentMax=0;resizeLast=0;collapsible=1;marginBottom=0;fontSize=12;" parent="1" vertex="1">
          <mxGeometry x="1358" y="40" width="220" height="182" as="geometry" />
        </mxCell>
        <mxCell id="7T5_bjkfD0b6_hwlpqSb-35" value="id:  BIGINT PK" style="text;strokeColor=none;fillColor=none;align=left;verticalAlign=top;spacingLeft=4;spacingRight=4;overflow=hidden;rotatable=0;points=[[0,0.5],[1,0.5]];portConstraint=eastwest;fontSize=12;" parent="7T5_bjkfD0b6_hwlpqSb-34" vertex="1">
          <mxGeometry y="26" width="220" height="26" as="geometry" />
        </mxCell>
        <mxCell id="7T5_bjkfD0b6_hwlpqSb-36" value="code: VARCHAR(255) " style="text;strokeColor=none;fillColor=none;align=left;verticalAlign=top;spacingLeft=4;spacingRight=4;overflow=hidden;rotatable=0;points=[[0,0.5],[1,0.5]];portConstraint=eastwest;fontSize=12;" parent="7T5_bjkfD0b6_hwlpqSb-34" vertex="1">
          <mxGeometry y="52" width="220" height="26" as="geometry" />
        </mxCell>
        <mxCell id="7T5_bjkfD0b6_hwlpqSb-37" value="symbol: VARCHAR(255) " style="text;strokeColor=none;fillColor=none;align=left;verticalAlign=top;spacingLeft=4;spacingRight=4;overflow=hidden;rotatable=0;points=[[0,0.5],[1,0.5]];portConstraint=eastwest;fontSize=12;" parent="7T5_bjkfD0b6_hwlpqSb-34" vertex="1">
          <mxGeometry y="78" width="220" height="26" as="geometry" />
        </mxCell>
        <mxCell id="7T5_bjkfD0b6_hwlpqSb-38" value="is_main: BOOLEAN DEFAULT(0) &#xa;" style="text;strokeColor=none;fillColor=none;align=left;verticalAlign=top;spacingLeft=4;spacingRight=4;overflow=hidden;rotatable=0;points=[[0,0.5],[1,0.5]];portConstraint=eastwest;fontSize=12;" parent="7T5_bjkfD0b6_hwlpqSb-34" vertex="1">
          <mxGeometry y="104" width="220" height="26" as="geometry" />
        </mxCell>
        <mxCell id="7T5_bjkfD0b6_hwlpqSb-39" value="rate: DOUBLE DEFAULT (0)  " style="text;strokeColor=none;fillColor=none;align=left;verticalAlign=top;spacingLeft=4;spacingRight=4;overflow=hidden;rotatable=0;points=[[0,0.5],[1,0.5]];portConstraint=eastwest;fontSize=12;" parent="7T5_bjkfD0b6_hwlpqSb-34" vertex="1">
          <mxGeometry y="130" width="220" height="26" as="geometry" />
        </mxCell>
        <mxCell id="7T5_bjkfD0b6_hwlpqSb-41" value="timestamps() (created and updated fkields)" style="text;strokeColor=none;fillColor=none;align=left;verticalAlign=top;spacingLeft=4;spacingRight=4;overflow=hidden;rotatable=0;points=[[0,0.5],[1,0.5]];portConstraint=eastwest;fontSize=12;" parent="7T5_bjkfD0b6_hwlpqSb-34" vertex="1">
          <mxGeometry y="156" width="220" height="26" as="geometry" />
        </mxCell>
        <mxCell id="7T5_bjkfD0b6_hwlpqSb-42" value="Если многовалютность не нужна, то оставить &lt;br&gt;только нужную валюту как главную" style="text;html=1;align=center;verticalAlign=middle;resizable=0;points=[];autosize=1;strokeColor=none;fillColor=none;" parent="1" vertex="1">
          <mxGeometry x="1330" y="-1" width="272" height="41" as="geometry" />
        </mxCell>
        <mxCell id="kNXv4OvVtbHkNcieeBWX-1" style="edgeStyle=orthogonalEdgeStyle;rounded=0;orthogonalLoop=1;jettySize=auto;html=1;endArrow=ERmany;endFill=0;startSize=16;endSize=16;" parent="1" source="CMXJ-791xtNu_VCUBqrS-6" target="CMXJ-791xtNu_VCUBqrS-17" edge="1">
          <mxGeometry relative="1" as="geometry">
            <Array as="points">
              <mxPoint x="539" y="790" />
              <mxPoint x="539" y="790" />
            </Array>
          </mxGeometry>
        </mxCell>
        <mxCell id="CMXJ-791xtNu_VCUBqrS-6" value="subscriptions" style="swimlane;fontStyle=0;childLayout=stackLayout;horizontal=1;startSize=26;fillColor=none;horizontalStack=0;resizeParent=1;resizeParentMax=0;resizeLast=0;collapsible=1;marginBottom=0;fontSize=12;" parent="1" vertex="1">
          <mxGeometry x="264" y="729" width="220" height="130" as="geometry" />
        </mxCell>
        <mxCell id="CMXJ-791xtNu_VCUBqrS-7" value="id: BIGINT PK" style="text;strokeColor=none;fillColor=none;align=left;verticalAlign=top;spacingLeft=4;spacingRight=4;overflow=hidden;rotatable=0;points=[[0,0.5],[1,0.5]];portConstraint=eastwest;fontSize=12;" parent="CMXJ-791xtNu_VCUBqrS-6" vertex="1">
          <mxGeometry y="26" width="220" height="26" as="geometry" />
        </mxCell>
        <mxCell id="CMXJ-791xtNu_VCUBqrS-8" value="email: VARCHAR(255)" style="text;strokeColor=none;fillColor=none;align=left;verticalAlign=top;spacingLeft=4;spacingRight=4;overflow=hidden;rotatable=0;points=[[0,0.5],[1,0.5]];portConstraint=eastwest;fontSize=12;" parent="CMXJ-791xtNu_VCUBqrS-6" vertex="1">
          <mxGeometry y="52" width="220" height="26" as="geometry" />
        </mxCell>
        <mxCell id="CMXJ-791xtNu_VCUBqrS-9" value="status: VARCHAR(255)" style="text;strokeColor=none;fillColor=none;align=left;verticalAlign=top;spacingLeft=4;spacingRight=4;overflow=hidden;rotatable=0;points=[[0,0.5],[1,0.5]];portConstraint=eastwest;fontSize=12;" parent="CMXJ-791xtNu_VCUBqrS-6" vertex="1">
          <mxGeometry y="78" width="220" height="26" as="geometry" />
        </mxCell>
        <mxCell id="CMXJ-791xtNu_VCUBqrS-10" value="offer_id: BIGINT FK " style="text;strokeColor=none;fillColor=none;align=left;verticalAlign=top;spacingLeft=4;spacingRight=4;overflow=hidden;rotatable=0;points=[[0,0.5],[1,0.5]];portConstraint=eastwest;fontSize=12;" parent="CMXJ-791xtNu_VCUBqrS-6" vertex="1">
          <mxGeometry y="104" width="220" height="26" as="geometry" />
        </mxCell>
        <mxCell id="CMXJ-791xtNu_VCUBqrS-16" value="Если товар отсутствует в магазине, то можно подписаться,&lt;br&gt;&lt;div&gt;чтобы получить уведомление о его поступлении.&lt;/div&gt;" style="text;html=1;align=center;verticalAlign=middle;resizable=0;points=[];autosize=1;strokeColor=none;fillColor=none;" parent="1" vertex="1">
          <mxGeometry x="225" y="545" width="348" height="41" as="geometry" />
        </mxCell>
        <mxCell id="CMXJ-791xtNu_VCUBqrS-56" style="edgeStyle=orthogonalEdgeStyle;rounded=0;orthogonalLoop=1;jettySize=auto;html=1;endArrow=ERmany;endFill=0;endSize=16;" parent="1" source="CMXJ-791xtNu_VCUBqrS-17" target="CMXJ-791xtNu_VCUBqrS-51" edge="1">
          <mxGeometry relative="1" as="geometry">
            <Array as="points">
              <mxPoint x="804" y="920" />
              <mxPoint x="804" y="920" />
            </Array>
          </mxGeometry>
        </mxCell>
        <mxCell id="-TOr3bomNxEPlG0Ie4Ft-20" style="edgeStyle=orthogonalEdgeStyle;rounded=0;orthogonalLoop=1;jettySize=auto;html=1;endArrow=ERmany;endFill=0;endSize=16;" parent="1" source="CMXJ-791xtNu_VCUBqrS-17" target="-TOr3bomNxEPlG0Ie4Ft-21" edge="1">
          <mxGeometry relative="1" as="geometry">
            <mxPoint x="955" y="744.0476190476188" as="targetPoint" />
          </mxGeometry>
        </mxCell>
        <mxCell id="CMXJ-791xtNu_VCUBqrS-17" value="offers" style="swimlane;fontStyle=0;childLayout=stackLayout;horizontal=1;startSize=26;fillColor=none;horizontalStack=0;resizeParent=1;resizeParentMax=0;resizeLast=0;collapsible=1;marginBottom=0;fontSize=12;" parent="1" vertex="1">
          <mxGeometry x="635" y="592" width="249" height="260" as="geometry" />
        </mxCell>
        <mxCell id="CYorcgna-Yo7nObwUySB-3" value="Торговые предложения" style="text;html=1;align=center;verticalAlign=middle;resizable=0;points=[];autosize=1;strokeColor=none;fillColor=none;" parent="CMXJ-791xtNu_VCUBqrS-17" vertex="1">
          <mxGeometry y="26" width="249" height="26" as="geometry" />
        </mxCell>
        <mxCell id="CMXJ-791xtNu_VCUBqrS-18" value="id: BIGINT PK" style="text;strokeColor=none;fillColor=none;align=left;verticalAlign=top;spacingLeft=4;spacingRight=4;overflow=hidden;rotatable=0;points=[[0,0.5],[1,0.5]];portConstraint=eastwest;fontSize=12;" parent="CMXJ-791xtNu_VCUBqrS-17" vertex="1">
          <mxGeometry y="52" width="249" height="26" as="geometry" />
        </mxCell>
        <mxCell id="cGDgYfXUe002vliOC38j-24" value="short_image: VARCHAR(255) " style="text;strokeColor=none;fillColor=none;align=left;verticalAlign=top;spacingLeft=4;spacingRight=4;overflow=hidden;rotatable=0;points=[[0,0.5],[1,0.5]];portConstraint=eastwest;fontSize=12;" parent="CMXJ-791xtNu_VCUBqrS-17" vertex="1">
          <mxGeometry y="78" width="249" height="26" as="geometry" />
        </mxCell>
        <mxCell id="CMXJ-791xtNu_VCUBqrS-19" value="count: UNSIGNED SMALLINT" style="text;strokeColor=none;fillColor=none;align=left;verticalAlign=top;spacingLeft=4;spacingRight=4;overflow=hidden;rotatable=0;points=[[0,0.5],[1,0.5]];portConstraint=eastwest;fontSize=12;" parent="CMXJ-791xtNu_VCUBqrS-17" vertex="1">
          <mxGeometry y="104" width="249" height="26" as="geometry" />
        </mxCell>
        <mxCell id="CMXJ-791xtNu_VCUBqrS-20" value="price: DACIMAL(11,2)" style="text;strokeColor=none;fillColor=none;align=left;verticalAlign=top;spacingLeft=4;spacingRight=4;overflow=hidden;rotatable=0;points=[[0,0.5],[1,0.5]];portConstraint=eastwest;fontSize=12;" parent="CMXJ-791xtNu_VCUBqrS-17" vertex="1">
          <mxGeometry y="130" width="249" height="26" as="geometry" />
        </mxCell>
        <mxCell id="CMXJ-791xtNu_VCUBqrS-21" value="item_id: BIGINT FK&#xa;&#xa; " style="text;strokeColor=none;fillColor=none;align=left;verticalAlign=top;spacingLeft=4;spacingRight=4;overflow=hidden;rotatable=0;points=[[0,0.5],[1,0.5]];portConstraint=eastwest;fontSize=12;" parent="CMXJ-791xtNu_VCUBqrS-17" vertex="1">
          <mxGeometry y="156" width="249" height="26" as="geometry" />
        </mxCell>
        <mxCell id="hjQHBtJrdqEXp9kS8Bs2-2" value="current_rating: DECIMAL(2,1) DEFAULT(0)" style="text;strokeColor=none;fillColor=none;align=left;verticalAlign=top;spacingLeft=4;spacingRight=4;overflow=hidden;rotatable=0;points=[[0,0.5],[1,0.5]];portConstraint=eastwest;fontSize=12;" parent="CMXJ-791xtNu_VCUBqrS-17" vertex="1">
          <mxGeometry y="182" width="249" height="26" as="geometry" />
        </mxCell>
        <mxCell id="CMXJ-791xtNu_VCUBqrS-26" value="timestamps() (created and updated fkields)" style="text;strokeColor=none;fillColor=none;align=left;verticalAlign=top;spacingLeft=4;spacingRight=4;overflow=hidden;rotatable=0;points=[[0,0.5],[1,0.5]];portConstraint=eastwest;fontSize=12;" parent="CMXJ-791xtNu_VCUBqrS-17" vertex="1">
          <mxGeometry y="208" width="249" height="26" as="geometry" />
        </mxCell>
        <mxCell id="CMXJ-791xtNu_VCUBqrS-27" value="softDeletes()" style="text;strokeColor=none;fillColor=none;align=left;verticalAlign=top;spacingLeft=4;spacingRight=4;overflow=hidden;rotatable=0;points=[[0,0.5],[1,0.5]];portConstraint=eastwest;fontSize=12;" parent="CMXJ-791xtNu_VCUBqrS-17" vertex="1">
          <mxGeometry y="234" width="249" height="26" as="geometry" />
        </mxCell>
        <mxCell id="CMXJ-791xtNu_VCUBqrS-57" style="edgeStyle=orthogonalEdgeStyle;rounded=0;orthogonalLoop=1;jettySize=auto;html=1;endArrow=ERmany;endFill=0;endSize=16;" parent="1" source="7T5_bjkfD0b6_hwlpqSb-21" target="CMXJ-791xtNu_VCUBqrS-51" edge="1">
          <mxGeometry relative="1" as="geometry">
            <Array as="points">
              <mxPoint x="793" y="1211" />
              <mxPoint x="748" y="1211" />
            </Array>
            <mxPoint x="568" y="1496" as="sourcePoint" />
          </mxGeometry>
        </mxCell>
        <mxCell id="CMXJ-791xtNu_VCUBqrS-51" value="offer_shape_option" style="swimlane;fontStyle=0;childLayout=stackLayout;horizontal=1;startSize=26;fillColor=none;horizontalStack=0;resizeParent=1;resizeParentMax=0;resizeLast=0;collapsible=1;marginBottom=0;fontSize=12;" parent="1" vertex="1">
          <mxGeometry x="708" y="974" width="176" height="130" as="geometry" />
        </mxCell>
        <mxCell id="CMXJ-791xtNu_VCUBqrS-52" value="id:  BIGINT" style="text;strokeColor=none;fillColor=none;align=left;verticalAlign=top;spacingLeft=4;spacingRight=4;overflow=hidden;rotatable=0;points=[[0,0.5],[1,0.5]];portConstraint=eastwest;fontSize=12;" parent="CMXJ-791xtNu_VCUBqrS-51" vertex="1">
          <mxGeometry y="26" width="176" height="26" as="geometry" />
        </mxCell>
        <mxCell id="CMXJ-791xtNu_VCUBqrS-53" value="property_option_id: BIGINT FK" style="text;strokeColor=none;fillColor=none;align=left;verticalAlign=top;spacingLeft=4;spacingRight=4;overflow=hidden;rotatable=0;points=[[0,0.5],[1,0.5]];portConstraint=eastwest;fontSize=12;" parent="CMXJ-791xtNu_VCUBqrS-51" vertex="1">
          <mxGeometry y="52" width="176" height="26" as="geometry" />
        </mxCell>
        <mxCell id="CMXJ-791xtNu_VCUBqrS-54" value="offer_id: BIGINT FK" style="text;strokeColor=none;fillColor=none;align=left;verticalAlign=top;spacingLeft=4;spacingRight=4;overflow=hidden;rotatable=0;points=[[0,0.5],[1,0.5]];portConstraint=eastwest;fontSize=12;" parent="CMXJ-791xtNu_VCUBqrS-51" vertex="1">
          <mxGeometry y="78" width="176" height="26" as="geometry" />
        </mxCell>
        <mxCell id="o2BpmhwHyJRgzGVOvW3j-6" value="timestamps()" style="text;strokeColor=none;fillColor=none;align=left;verticalAlign=top;spacingLeft=4;spacingRight=4;overflow=hidden;rotatable=0;points=[[0,0.5],[1,0.5]];portConstraint=eastwest;fontSize=12;" parent="CMXJ-791xtNu_VCUBqrS-51" vertex="1">
          <mxGeometry y="104" width="176" height="26" as="geometry" />
        </mxCell>
        <mxCell id="XyknOW0sDeTH1unbDJ6V-1" value="" style="edgeStyle=orthogonalEdgeStyle;rounded=0;orthogonalLoop=1;jettySize=auto;html=1;endArrow=none;endFill=0;endSize=16;" parent="1" source="7T5_bjkfD0b6_hwlpqSb-15" target="7T5_bjkfD0b6_hwlpqSb-27" edge="1">
          <mxGeometry relative="1" as="geometry">
            <mxPoint x="1110" y="1338.9999999999995" as="sourcePoint" />
            <mxPoint x="1110" y="1386" as="targetPoint" />
          </mxGeometry>
        </mxCell>
        <mxCell id="7T5_bjkfD0b6_hwlpqSb-27" value="У каждого шаблона должны быть предустановленные опции.&lt;br&gt;&lt;div&gt;Это облегчает их использование.&lt;br&gt;Все опции будут чекбоксами с названием справа от него&lt;/div&gt;" style="text;html=1;align=center;verticalAlign=middle;resizable=0;points=[];autosize=1;strokeColor=none;fillColor=none;" parent="1" vertex="1">
          <mxGeometry x="602" y="1305" width="361" height="55" as="geometry" />
        </mxCell>
        <mxCell id="XyknOW0sDeTH1unbDJ6V-2" value="" style="edgeStyle=orthogonalEdgeStyle;rounded=0;orthogonalLoop=1;jettySize=auto;html=1;startArrow=none;startFill=0;endArrow=none;endFill=0;endSize=16;" parent="1" source="gBOeq5-oKmPeRh7g_FEv-1" target="7T5_bjkfD0b6_hwlpqSb-28" edge="1">
          <mxGeometry relative="1" as="geometry">
            <mxPoint x="1110" y="1121" as="sourcePoint" />
            <mxPoint x="1110" y="1183" as="targetPoint" />
            <Array as="points">
              <mxPoint x="1104" y="1672" />
              <mxPoint x="789" y="1672" />
            </Array>
          </mxGeometry>
        </mxCell>
        <mxCell id="7T5_bjkfD0b6_hwlpqSb-28" value="У каждого предмета должен быть свой шаблон с полями для заполнения.&lt;br&gt;&lt;div&gt;Это позволяет создавать более удобные фильтры.&lt;/div&gt;" style="text;html=1;align=center;verticalAlign=middle;resizable=0;points=[];autosize=1;strokeColor=none;fillColor=none;" parent="1" vertex="1">
          <mxGeometry x="573" y="1582" width="432" height="41" as="geometry" />
        </mxCell>
        <mxCell id="XyknOW0sDeTH1unbDJ6V-3" value="" style="edgeStyle=orthogonalEdgeStyle;rounded=0;orthogonalLoop=1;jettySize=auto;html=1;endArrow=none;endFill=0;fontSize=12;startArrow=ERmany;startFill=0;startSize=16;" parent="1" source="cGDgYfXUe002vliOC38j-1" target="7T5_bjkfD0b6_hwlpqSb-20" edge="1">
          <mxGeometry relative="1" as="geometry">
            <Array as="points" />
            <mxPoint x="1118" y="903.9999999999995" as="sourcePoint" />
            <mxPoint x="1118" y="991" as="targetPoint" />
          </mxGeometry>
        </mxCell>
        <mxCell id="7T5_bjkfD0b6_hwlpqSb-20" value="Каждый предмет должен быть присвоен к категории" style="text;html=1;align=center;verticalAlign=middle;resizable=0;points=[];autosize=1;strokeColor=none;fillColor=none;" parent="1" vertex="1">
          <mxGeometry x="950" y="1425" width="310" height="26" as="geometry" />
        </mxCell>
        <mxCell id="XyknOW0sDeTH1unbDJ6V-4" value="" style="edgeStyle=orthogonalEdgeStyle;rounded=0;orthogonalLoop=1;jettySize=auto;html=1;endArrow=none;endFill=0;endSize=16;" parent="1" source="7T5_bjkfD0b6_hwlpqSb-34" target="7T5_bjkfD0b6_hwlpqSb-33" edge="1">
          <mxGeometry relative="1" as="geometry">
            <mxPoint x="1468" y="222" as="sourcePoint" />
            <mxPoint x="1468" y="352" as="targetPoint" />
          </mxGeometry>
        </mxCell>
        <mxCell id="7T5_bjkfD0b6_hwlpqSb-33" value="Пусть промокоды будут давать скидку &lt;br&gt;в фиксированном размере, а не в процентном." style="text;html=1;align=center;verticalAlign=middle;resizable=0;points=[];autosize=1;strokeColor=none;fillColor=none;" parent="1" vertex="1">
          <mxGeometry x="1327.5" y="260" width="281" height="41" as="geometry" />
        </mxCell>
        <mxCell id="-TOr3bomNxEPlG0Ie4Ft-7" value="" style="rounded=0;whiteSpace=wrap;html=1;fillColor=none;" parent="1" vertex="1">
          <mxGeometry x="929.5" y="526" width="448.5" height="283" as="geometry" />
        </mxCell>
        <mxCell id="-TOr3bomNxEPlG0Ie4Ft-8" value="basket" style="swimlane;fontStyle=0;childLayout=stackLayout;horizontal=1;startSize=26;fillColor=none;horizontalStack=0;resizeParent=1;resizeParentMax=0;resizeLast=0;collapsible=1;marginBottom=0;fontSize=12;" parent="1" vertex="1">
          <mxGeometry x="1156.5" y="535" width="208.5" height="156" as="geometry" />
        </mxCell>
        <mxCell id="-TOr3bomNxEPlG0Ie4Ft-9" value="id:  BIGINT" style="text;strokeColor=none;fillColor=none;align=left;verticalAlign=top;spacingLeft=4;spacingRight=4;overflow=hidden;rotatable=0;points=[[0,0.5],[1,0.5]];portConstraint=eastwest;fontSize=12;" parent="-TOr3bomNxEPlG0Ie4Ft-8" vertex="1">
          <mxGeometry y="26" width="208.5" height="26" as="geometry" />
        </mxCell>
        <mxCell id="-TOr3bomNxEPlG0Ie4Ft-29" value="order_id: BIGINT FK" style="text;strokeColor=none;fillColor=none;align=left;verticalAlign=top;spacingLeft=4;spacingRight=4;overflow=hidden;rotatable=0;points=[[0,0.5],[1,0.5]];portConstraint=eastwest;fontSize=12;" parent="-TOr3bomNxEPlG0Ie4Ft-8" vertex="1">
          <mxGeometry y="52" width="208.5" height="26" as="geometry" />
        </mxCell>
        <mxCell id="-TOr3bomNxEPlG0Ie4Ft-11" value="key: string" style="text;strokeColor=none;fillColor=none;align=left;verticalAlign=top;spacingLeft=4;spacingRight=4;overflow=hidden;rotatable=0;points=[[0,0.5],[1,0.5]];portConstraint=eastwest;fontSize=12;" parent="-TOr3bomNxEPlG0Ie4Ft-8" vertex="1">
          <mxGeometry y="78" width="208.5" height="26" as="geometry" />
        </mxCell>
        <mxCell id="-TOr3bomNxEPlG0Ie4Ft-30" value="status: string DEFAULT &quot;just created&quot;" style="text;strokeColor=none;fillColor=none;align=left;verticalAlign=top;spacingLeft=4;spacingRight=4;overflow=hidden;rotatable=0;points=[[0,0.5],[1,0.5]];portConstraint=eastwest;fontSize=12;" parent="-TOr3bomNxEPlG0Ie4Ft-8" vertex="1">
          <mxGeometry y="104" width="208.5" height="26" as="geometry" />
        </mxCell>
        <mxCell id="-TOr3bomNxEPlG0Ie4Ft-13" value="price: decimal(11,2)" style="text;strokeColor=none;fillColor=none;align=left;verticalAlign=top;spacingLeft=4;spacingRight=4;overflow=hidden;rotatable=0;points=[[0,0.5],[1,0.5]];portConstraint=eastwest;fontSize=12;" parent="-TOr3bomNxEPlG0Ie4Ft-8" vertex="1">
          <mxGeometry y="130" width="208.5" height="26" as="geometry" />
        </mxCell>
        <mxCell id="-TOr3bomNxEPlG0Ie4Ft-14" value="Для реализации работы корзины без сессий. Для работы React-корзины" style="text;html=1;strokeColor=none;fillColor=none;align=center;verticalAlign=middle;whiteSpace=wrap;rounded=0;" parent="1" vertex="1">
          <mxGeometry x="941" y="564" width="152" height="46" as="geometry" />
        </mxCell>
        <mxCell id="-TOr3bomNxEPlG0Ie4Ft-27" style="edgeStyle=orthogonalEdgeStyle;rounded=0;orthogonalLoop=1;jettySize=auto;html=1;endArrow=none;endFill=0;startArrow=ERmany;startFill=0;startSize=16;" parent="1" source="-TOr3bomNxEPlG0Ie4Ft-21" target="-TOr3bomNxEPlG0Ie4Ft-8" edge="1">
          <mxGeometry relative="1" as="geometry">
            <Array as="points">
              <mxPoint x="1190" y="722" />
            </Array>
          </mxGeometry>
        </mxCell>
        <mxCell id="-TOr3bomNxEPlG0Ie4Ft-21" value="basket_offer" style="swimlane;fontStyle=0;childLayout=stackLayout;horizontal=1;startSize=26;fillColor=none;horizontalStack=0;resizeParent=1;resizeParentMax=0;resizeLast=0;collapsible=1;marginBottom=0;fontSize=12;" parent="1" vertex="1">
          <mxGeometry x="963" y="644" width="171" height="156" as="geometry" />
        </mxCell>
        <mxCell id="-TOr3bomNxEPlG0Ie4Ft-22" value="id:  BIGINT" style="text;strokeColor=none;fillColor=none;align=left;verticalAlign=top;spacingLeft=4;spacingRight=4;overflow=hidden;rotatable=0;points=[[0,0.5],[1,0.5]];portConstraint=eastwest;fontSize=12;" parent="-TOr3bomNxEPlG0Ie4Ft-21" vertex="1">
          <mxGeometry y="26" width="171" height="26" as="geometry" />
        </mxCell>
        <mxCell id="-TOr3bomNxEPlG0Ie4Ft-23" value="order_id: BIGINT FK" style="text;strokeColor=none;fillColor=none;align=left;verticalAlign=top;spacingLeft=4;spacingRight=4;overflow=hidden;rotatable=0;points=[[0,0.5],[1,0.5]];portConstraint=eastwest;fontSize=12;" parent="-TOr3bomNxEPlG0Ie4Ft-21" vertex="1">
          <mxGeometry y="52" width="171" height="26" as="geometry" />
        </mxCell>
        <mxCell id="-TOr3bomNxEPlG0Ie4Ft-24" value="offer_id: BIGINT FK" style="text;strokeColor=none;fillColor=none;align=left;verticalAlign=top;spacingLeft=4;spacingRight=4;overflow=hidden;rotatable=0;points=[[0,0.5],[1,0.5]];portConstraint=eastwest;fontSize=12;" parent="-TOr3bomNxEPlG0Ie4Ft-21" vertex="1">
          <mxGeometry y="78" width="171" height="26" as="geometry" />
        </mxCell>
        <mxCell id="-TOr3bomNxEPlG0Ie4Ft-25" value="count: UNSIGNED TINYINT" style="text;strokeColor=none;fillColor=none;align=left;verticalAlign=top;spacingLeft=4;spacingRight=4;overflow=hidden;rotatable=0;points=[[0,0.5],[1,0.5]];portConstraint=eastwest;fontSize=12;" parent="-TOr3bomNxEPlG0Ie4Ft-21" vertex="1">
          <mxGeometry y="104" width="171" height="26" as="geometry" />
        </mxCell>
        <mxCell id="-TOr3bomNxEPlG0Ie4Ft-26" value="price_per_offer: decimal(11,2)" style="text;strokeColor=none;fillColor=none;align=left;verticalAlign=top;spacingLeft=4;spacingRight=4;overflow=hidden;rotatable=0;points=[[0,0.5],[1,0.5]];portConstraint=eastwest;fontSize=12;" parent="-TOr3bomNxEPlG0Ie4Ft-21" vertex="1">
          <mxGeometry y="130" width="171" height="26" as="geometry" />
        </mxCell>
        <mxCell id="-TOr3bomNxEPlG0Ie4Ft-28" value="" style="html=1;whiteSpace=wrap;fillColor=none;" parent="1" vertex="1">
          <mxGeometry x="1843" y="107" width="571" height="441" as="geometry" />
        </mxCell>
      </root>
    </mxGraphModel>
  </diagram>
</mxfile>
